<svg width="142" height="305" viewBox="0 0 142 305" fill="none" xmlns="http://www.w3.org/2000/svg">
<g clip-path="url(#clip0_230_3)">
<path d="M114.517 186.119H105.355V195.261H114.517V186.119Z" fill="#CB9E00"/>
<path d="M105.355 186.119H96.193V195.261H105.355V186.119Z" fill="#CB9E00"/>
<path d="M96.193 186.119H87.0308V195.261H96.193V186.119Z" fill="#CB9E00"/>
<path d="M87.035 186.119H77.8727V195.261H87.035V186.119Z" fill="#CB9E00"/>
<path d="M68.7105 186.119H59.5482V195.261H68.7105V186.119Z" fill="#CB9E00"/>
<path d="M77.8727 186.119H68.7105V195.261H77.8727V186.119Z" fill="#CB9E00"/>
<path d="M50.3902 186.119H41.228V195.261H50.3902V186.119Z" fill="#CB9E00"/>
<path d="M59.5524 186.119H50.3902V195.261H59.5524V186.119Z" fill="#CB9E00"/>
<path d="M41.2238 186.119H32.0657V195.261H41.2238V186.119Z" fill="#CB9E00"/>
<path d="M114.517 195.265H105.355V204.407H114.517V195.265Z" fill="#CB9E00"/>
<path d="M41.2238 195.265H32.0657V204.407H41.2238V195.265Z" fill="#CB9E00"/>
<path d="M114.517 204.407H105.355V213.549H114.517V204.407Z" fill="#CB9E00"/>
<path d="M41.2238 204.407H32.0657V213.549H41.2238V204.407Z" fill="#CB9E00"/>
<path d="M114.517 213.554H105.355V222.696H114.517V213.554Z" fill="#CB9E00"/>
<path d="M41.2238 213.554H32.0657V222.696H41.2238V213.554Z" fill="#CB9E00"/>
<path d="M114.517 176.977H105.355V186.119H114.517V176.977Z" fill="#CB9E00"/>
<path d="M105.355 176.977H96.193V186.119H105.355V176.977Z" fill="#CB9E00"/>
<path d="M96.193 176.972H87.0308V186.118H96.193V176.972Z" fill="#CB9E00"/>
<path d="M87.035 176.972H77.8727V186.118H87.035V176.972Z" fill="#CB9E00"/>
<path d="M68.7105 176.977H59.5482V186.119H68.7105V176.977Z" fill="#CB9E00"/>
<path d="M77.8727 176.977H68.7105V186.119H77.8727V176.977Z" fill="#CB9E00"/>
<path d="M50.3902 176.977H41.228V186.119H50.3902V176.977Z" fill="#CB9E00"/>
<path d="M32.0657 176.977H22.9035V186.119H32.0657V176.977Z" fill="#CB9E00"/>
<path d="M59.5524 176.972H50.3902V186.118H59.5524V176.972Z" fill="#CB9E00"/>
<path d="M41.2238 176.977H32.0657V186.119H41.2238V176.977Z" fill="#CB9E00"/>
<path d="M50.3902 131.249H41.228V140.395H50.3902V131.249Z" fill="#CB9E00"/>
<path d="M32.0657 131.249H22.9035V140.395H32.0657V131.249Z" fill="#CB9E00"/>
<path d="M68.7105 131.249H59.5482V140.395H68.7105V131.249Z" fill="#CB9E00"/>
<path d="M77.8727 131.249H68.7105V140.395H77.8727V131.249Z" fill="#CB9E00"/>
<path d="M59.5524 131.249H50.3902V140.395H59.5524V131.249Z" fill="#CB9E00"/>
<path d="M87.035 131.249H77.8727V140.395H87.035V131.249Z" fill="#CB9E00"/>
<path d="M114.517 131.249H105.355V140.395H114.517V131.249Z" fill="#CB9E00"/>
<path d="M105.355 131.249H96.193V140.395H105.355V131.249Z" fill="#CB9E00"/>
<path d="M132.838 131.249H123.676V140.395H132.838V131.249Z" fill="#CB9E00"/>
<path d="M123.68 131.249H114.517V140.395H123.68V131.249Z" fill="#CB9E00"/>
<path d="M96.1972 131.249H87.035V140.395H96.1972V131.249Z" fill="#CB9E00"/>
<path d="M114.517 149.538H105.355V158.684H114.517V149.538Z" fill="#CB9E00"/>
<path d="M105.355 149.538H96.193V158.684H105.355V149.538Z" fill="#CB9E00"/>
<path d="M114.517 158.684H105.355V167.83H114.517V158.684Z" fill="#CB9E00"/>
<path d="M105.355 158.684H96.193V167.83H105.355V158.684Z" fill="#CB9E00"/>
<path d="M123.68 149.538H114.517V158.68H123.68V149.538Z" fill="#CB9E00"/>
<path d="M96.193 158.684H87.0308V167.83H96.193V158.684Z" fill="#CB9E00"/>
<path d="M123.68 158.684H114.517V167.83H123.68V158.684Z" fill="#CB9E00"/>
<path d="M96.193 149.538H87.0308V158.684H96.193V149.538Z" fill="#CB9E00"/>
<path d="M87.035 158.684H77.8727V167.83H87.035V158.684Z" fill="#CB9E00"/>
<path d="M68.7105 149.538H59.5482V158.684H68.7105V149.538Z" fill="#CB9E00"/>
<path d="M77.8727 149.538H68.7105V158.68H77.8727V149.538Z" fill="#CB9E00"/>
<path d="M68.7105 158.684H59.5482V167.83H68.7105V158.684Z" fill="#CB9E00"/>
<path d="M77.8727 158.684H68.7105V167.83H77.8727V158.684Z" fill="#CB9E00"/>
<path d="M50.3902 149.538H41.228V158.684H50.3902V149.538Z" fill="#CB9E00"/>
<path d="M32.0657 149.538H22.9035V158.684H32.0657V149.538Z" fill="#CB9E00"/>
<path d="M50.3902 158.684H41.228V167.83H50.3902V158.684Z" fill="#CB9E00"/>
<path d="M32.0657 158.684H22.9035V167.83H32.0657V158.684Z" fill="#CB9E00"/>
<path d="M59.5524 149.538H50.3902V158.68H59.5524V149.538Z" fill="#CB9E00"/>
<path d="M59.5524 158.684H50.3902V167.83H59.5524V158.684Z" fill="#CB9E00"/>
<path d="M87.035 149.538H77.8727V158.684H87.035V149.538Z" fill="#CB9E00"/>
<path d="M96.193 213.549H87.0308V222.696H96.193V213.549Z" fill="#CB9E00"/>
<path d="M87.035 213.549H77.8727V222.696H87.035V213.549Z" fill="#CB9E00"/>
<path d="M68.7105 213.554H59.5482V222.7H68.7105V213.554Z" fill="#CB9E00"/>
<path d="M77.8727 213.554H68.7105V222.7H77.8727V213.554Z" fill="#CB9E00"/>
<path d="M50.3902 213.554H41.228V222.7H50.3902V213.554Z" fill="#CB9E00"/>
<path d="M59.5524 213.549H50.3902V222.696H59.5524V213.549Z" fill="#CB9E00"/>
<path d="M96.193 204.407H87.0308V213.554H96.193V204.407Z" fill="#CB9E00"/>
<path d="M96.193 195.265H87.0308V204.411H96.193V195.265Z" fill="#CB9E00"/>
<path d="M105.355 213.549H96.193V222.696H105.355V213.549Z" fill="#CB9E00"/>
<path d="M114.517 213.554V222.696H105.355V213.554" fill="#CB9E00"/>
<path d="M41.228 213.554V222.696H32.0657V213.554" fill="#CB9E00"/>
<path d="M96.193 213.549V222.696H87.0308V213.549" fill="#CB9E00"/>
<path d="M87.0308 213.549V222.696H77.8727V213.549" fill="#CB9E00"/>
<path d="M68.7105 213.554V222.696H59.5482V213.554" fill="#CB9E00"/>
<path d="M77.8727 213.554V222.696H68.7105V213.554" fill="#CB9E00"/>
<path d="M50.3902 213.554V222.696H41.228V213.554" fill="#CB9E00"/>
<path d="M59.5482 213.549V222.696H50.3902V213.549" fill="#CB9E00"/>
<path d="M105.355 213.549V222.696H96.193V213.549" fill="#CB9E00"/>
<path d="M114.517 222.7H105.355V231.842H114.517V222.7Z" fill="#CB9E00"/>
<path d="M41.2238 222.7H32.0657V231.842H41.2238V222.7Z" fill="#CB9E00"/>
<path d="M96.193 222.696H87.0308V231.842H96.193V222.696Z" fill="#CB9E00"/>
<path d="M87.035 222.696H77.8727V231.842H87.035V222.696Z" fill="#CB9E00"/>
<path d="M68.7105 222.7H59.5482V231.846H68.7105V222.7Z" fill="#CB9E00"/>
<path d="M77.8727 222.7H68.7105V231.846H77.8727V222.7Z" fill="#CB9E00"/>
<path d="M50.3902 222.7H41.228V231.846H50.3902V222.7Z" fill="#CB9E00"/>
<path d="M59.5524 222.696H50.3902V231.842H59.5524V222.696Z" fill="#CB9E00"/>
<path d="M105.355 222.696H96.193V231.842H105.355V222.696Z" fill="#CB9E00"/>
<path d="M114.517 222.7V231.842H105.355V222.7" fill="#CB9E00"/>
<path d="M41.228 222.7V231.842H32.0657V222.7" fill="#CB9E00"/>
<path d="M96.193 222.696V231.842H87.0308V222.696" fill="#CB9E00"/>
<path d="M87.0308 222.696V231.842H77.8727V222.696" fill="#CB9E00"/>
<path d="M68.7105 222.7V231.842H59.5482V222.7" fill="#CB9E00"/>
<path d="M77.8727 222.7V231.842H68.7105V222.7" fill="#CB9E00"/>
<path d="M50.3902 222.7V231.842H41.228V222.7" fill="#CB9E00"/>
<path d="M59.5482 222.696V231.842H50.3902V222.696" fill="#CB9E00"/>
<path d="M105.355 222.696V231.842H96.193V222.696" fill="#CB9E00"/>
<path d="M105.355 204.407H96.193V213.554H105.355V204.407Z" fill="#CB9E00"/>
<path d="M105.355 195.265H96.193V204.411H105.355V195.265Z" fill="#CB9E00"/>
<path d="M87.035 204.407H77.8727V213.554H87.035V204.407Z" fill="#CB9E00"/>
<path d="M68.7105 195.265H59.5482V204.411H68.7105V195.265Z" fill="#CB9E00"/>
<path d="M77.8727 195.265H68.7105V204.407H77.8727V195.265Z" fill="#CB9E00"/>
<path d="M68.7105 204.407H59.5482V213.554H68.7105V204.407Z" fill="#CB9E00"/>
<path d="M77.8727 204.407H68.7105V213.554H77.8727V204.407Z" fill="#CB9E00"/>
<path d="M50.3902 195.265H41.228V204.411H50.3902V195.265Z" fill="#CB9E00"/>
<path d="M50.3902 204.407H41.228V213.554H50.3902V204.407Z" fill="#CB9E00"/>
<path d="M59.5524 195.265H50.3902V204.407H59.5524V195.265Z" fill="#CB9E00"/>
<path d="M59.5524 204.407H50.3902V213.554H59.5524V204.407Z" fill="#CB9E00"/>
<path d="M87.035 195.265H77.8727V204.411H87.035V195.265Z" fill="#CB9E00"/>
<path d="M114.517 231.842H105.355V240.984H114.517V231.842Z" fill="#CB9E00"/>
<path d="M114.517 213.554V222.696H105.355" fill="#CB9E00"/>
<path d="M114.517 213.554V222.696H105.355" fill="#CB9E00"/>
<path d="M105.355 222.7H114.517V231.842H105.355" fill="#CB9E00"/>
<path d="M114.517 222.7V231.842H105.355" fill="#CB9E00"/>
<path d="M105.355 231.842H114.517V240.988" fill="#CB9E00"/>
<path d="M41.2238 231.842H32.0657V240.984H41.2238V231.842Z" fill="#CB9E00"/>
<path d="M114.517 240.988H105.355V250.13H114.517V240.988Z" fill="#CB9E00"/>
<path d="M41.2238 240.988H32.0657V250.13H41.2238V240.988Z" fill="#CB9E00"/>
<path d="M96.193 240.988H87.0308V250.13H96.193V240.988Z" fill="#CB9E00"/>
<path d="M96.193 231.842H87.0308V240.988H96.193V231.842Z" fill="#CB9E00"/>
<path d="M114.517 259.277H105.355V268.419H114.517V259.277Z" fill="#CB9E00"/>
<path d="M41.2238 259.277H32.0657V268.419H41.2238V259.277Z" fill="#CB9E00"/>
<path d="M96.193 259.277H87.0308V268.423H96.193V259.277Z" fill="#CB9E00"/>
<path d="M87.035 259.277H77.8727V268.423H87.035V259.277Z" fill="#CB9E00"/>
<path d="M68.7105 259.277H59.5482V268.423H68.7105V259.277Z" fill="#CB9E00"/>
<path d="M77.8727 259.277H68.7105V268.423H77.8727V259.277Z" fill="#CB9E00"/>
<path d="M50.3902 259.277H41.228V268.423H50.3902V259.277Z" fill="#CB9E00"/>
<path d="M59.5524 259.277H50.3902V268.423H59.5524V259.277Z" fill="#CB9E00"/>
<path d="M105.355 259.277H96.193V268.423H105.355V259.277Z" fill="#CB9E00"/>
<path d="M114.517 259.277V268.419H105.355V259.277" fill="#CB9E00"/>
<path d="M41.228 259.277V268.419H32.0657V259.277" fill="#CB9E00"/>
<path d="M96.193 259.277V268.423H87.0308V259.277" fill="#CB9E00"/>
<path d="M87.0308 259.277V268.423H77.8727V259.277" fill="#CB9E00"/>
<path d="M68.7105 259.277V268.423H59.5482V259.277" fill="#CB9E00"/>
<path d="M77.8727 259.277V268.423H68.7105V259.277" fill="#CB9E00"/>
<path d="M50.3902 259.277V268.423H41.228V259.277" fill="#CB9E00"/>
<path d="M59.5482 259.277V268.423H50.3902V259.277" fill="#CB9E00"/>
<path d="M105.355 259.277V268.423H96.193V259.277" fill="#CB9E00"/>
<path d="M105.355 240.988H96.193V250.13H105.355V240.988Z" fill="#CB9E00"/>
<path d="M105.355 231.842H96.193V240.988H105.355V231.842Z" fill="#CB9E00"/>
<path d="M123.68 213.549H114.517V222.696H123.68V213.549Z" fill="#CB9E00"/>
<path d="M123.68 213.549V222.696H114.517V213.549" fill="#CB9E00"/>
<path d="M123.68 222.696H114.517V231.842H123.68V222.696Z" fill="#CB9E00"/>
<path d="M123.68 222.696V231.842H114.517V222.696" fill="#CB9E00"/>
<path d="M123.68 240.988H114.517V250.13H123.68V240.988Z" fill="#CB9E00"/>
<path d="M123.68 231.842H114.517V240.988H123.68V231.842Z" fill="#CB9E00"/>
<path d="M32.0657 213.549H22.9035V222.696H32.0657V213.549Z" fill="#CB9E00"/>
<path d="M32.0657 213.549V222.696H22.9035V213.549" fill="#CB9E00"/>
<path d="M32.0657 222.696H22.9035V231.842H32.0657V222.696Z" fill="#CB9E00"/>
<path d="M32.0657 222.696V231.842H22.9035V222.696" fill="#CB9E00"/>
<path d="M32.0657 240.988H22.9035V250.13H32.0657V240.988Z" fill="#CB9E00"/>
<path d="M32.0657 231.842H22.9035V240.988H32.0657V231.842Z" fill="#CB9E00"/>
<path d="M87.035 240.988H77.8727V250.13H87.035V240.988Z" fill="#CB9E00"/>
<path d="M68.7105 231.842H59.5482V240.988H68.7105V231.842Z" fill="#CB9E00"/>
<path d="M77.8727 231.842H68.7105V240.984H77.8727V231.842Z" fill="#CB9E00"/>
<path d="M68.7105 240.988H59.5482V250.13H68.7105V240.988Z" fill="#CB9E00"/>
<path d="M77.8727 240.988H68.7105V250.13H77.8727V240.988Z" fill="#CB9E00"/>
<path d="M50.3902 231.842H41.228V240.988H50.3902V231.842Z" fill="#CB9E00"/>
<path d="M50.3902 240.988H41.228V250.13H50.3902V240.988Z" fill="#CB9E00"/>
<path d="M59.5524 231.842H50.3902V240.984H59.5524V231.842Z" fill="#CB9E00"/>
<path d="M59.5524 240.988H50.3902V250.13H59.5524V240.988Z" fill="#CB9E00"/>
<path d="M87.035 231.842H77.8727V240.988H87.035V231.842Z" fill="#CB9E00"/>
<path d="M114.517 240.988H105.355V250.13H114.517V240.988Z" fill="#CB9E00"/>
<path d="M105.355 240.988H114.517V250.13" fill="#CB9E00"/>
<path d="M41.228 240.988H32.0699V250.13H41.228V240.988Z" fill="#CB9E00"/>
<path d="M114.517 250.13H105.355V259.273H114.517V250.13Z" fill="#CB9E00"/>
<path d="M41.228 250.13H32.0699V259.273H41.228V250.13Z" fill="#CB9E00"/>
<path d="M96.1972 250.13H87.035V259.273H96.1972V250.13Z" fill="#CB9E00"/>
<path d="M96.1972 240.988H87.035V250.135H96.1972V240.988Z" fill="#CB9E00"/>
<path d="M105.355 250.13H96.193V259.273H105.355V250.13Z" fill="#CB9E00"/>
<path d="M105.355 240.988H96.193V250.135H105.355V240.988Z" fill="#CB9E00"/>
<path d="M123.68 250.13H114.517V259.273H123.68V250.13Z" fill="#CB9E00"/>
<path d="M123.68 240.988H114.517V250.135H123.68V240.988Z" fill="#CB9E00"/>
<path d="M132.838 222.696H123.676V231.842H132.838V222.696Z" fill="#CB9E00"/>
<path d="M132.838 222.696V231.842H123.676V222.696" fill="#CB9E00"/>
<path d="M132.838 240.988H123.676V250.13H132.838V240.988Z" fill="#CB9E00"/>
<path d="M132.838 231.842H123.676V240.988H132.838V231.842Z" fill="#CB9E00"/>
<path d="M142 231.842H132.838V240.988H142V231.842Z" fill="#CB9E00"/>
<path d="M132.842 240.988H123.68V250.135H132.842V240.988Z" fill="#CB9E00"/>
<path d="M32.0657 250.13H22.9035V259.273H32.0657V250.13Z" fill="#CB9E00"/>
<path d="M32.0657 240.988H22.9035V250.135H32.0657V240.988Z" fill="#CB9E00"/>
<path d="M22.9035 222.696H13.7413V231.842H22.9035V222.696Z" fill="#CB9E00"/>
<path d="M22.9035 222.696V231.842H13.7413V222.696" fill="#CB9E00"/>
<path d="M22.9035 240.988H13.7413V250.13H22.9035V240.988Z" fill="#CB9E00"/>
<path d="M22.9035 231.842H13.7413V240.988H22.9035V231.842Z" fill="#CB9E00"/>
<path d="M13.7454 231.842H4.58321V240.988H13.7454V231.842Z" fill="#CB9E00"/>
<path d="M22.9077 240.988H13.7455V250.135H22.9077V240.988Z" fill="#CB9E00"/>
<path d="M87.035 250.13H77.8727V259.273H87.035V250.13Z" fill="#CB9E00"/>
<path d="M68.7105 240.988H59.5482V250.135H68.7105V240.988Z" fill="#CB9E00"/>
<path d="M77.8727 240.988H68.7105V250.13H77.8727V240.988Z" fill="#CB9E00"/>
<path d="M68.7105 250.13H59.5482V259.273H68.7105V250.13Z" fill="#CB9E00"/>
<path d="M77.8727 250.13H68.7105V259.273H77.8727V250.13Z" fill="#CB9E00"/>
<path d="M50.3902 240.988H41.228V250.135H50.3902V240.988Z" fill="#CB9E00"/>
<path d="M50.3902 250.13H41.228V259.273H50.3902V250.13Z" fill="#CB9E00"/>
<path d="M59.5524 240.988H50.3902V250.13H59.5524V240.988Z" fill="#CB9E00"/>
<path d="M59.5524 250.13H50.3902V259.273H59.5524V250.13Z" fill="#CB9E00"/>
<path d="M87.035 240.988H77.8727V250.135H87.035V240.988Z" fill="#CB9E00"/>
<path d="M114.517 268.423H105.355V277.565H114.517V268.423Z" fill="#CB9E00"/>
<path d="M41.2238 268.423H32.0657V277.565H41.2238V268.423Z" fill="#CB9E00"/>
<path d="M114.517 277.565H105.355V286.708H114.517V277.565Z" fill="#CB9E00"/>
<path d="M41.2238 277.565H32.0657V286.708H41.2238V277.565Z" fill="#CB9E00"/>
<path d="M114.517 286.708H105.355V295.85H114.517V286.708Z" fill="#CB9E00"/>
<path d="M41.2238 286.708H32.0657V295.85H41.2238V286.708Z" fill="#CB9E00"/>
<path d="M96.193 286.708H87.0308V295.854H96.193V286.708Z" fill="#CB9E00"/>
<path d="M87.035 286.708H77.8727V295.854H87.035V286.708Z" fill="#CB9E00"/>
<path d="M68.7105 286.711H59.5482V295.858H68.7105V286.711Z" fill="#CB9E00"/>
<path d="M77.8727 286.711H68.7105V295.858H77.8727V286.711Z" fill="#CB9E00"/>
<path d="M50.3902 286.711H41.228V295.858H50.3902V286.711Z" fill="#CB9E00"/>
<path d="M59.5524 286.708H50.3902V295.854H59.5524V286.708Z" fill="#CB9E00"/>
<path d="M96.193 277.565H87.0308V286.712H96.193V277.565Z" fill="#CB9E00"/>
<path d="M96.193 268.419H87.0308V277.565H96.193V268.419Z" fill="#CB9E00"/>
<path d="M105.355 286.708H96.193V295.854H105.355V286.708Z" fill="#CB9E00"/>
<path d="M114.517 286.708V295.854H105.355V286.708" fill="#CB9E00"/>
<path d="M41.228 286.708V295.854H32.0657V286.708" fill="#CB9E00"/>
<path d="M96.193 286.708V295.854H87.0308V286.708" fill="#CB9E00"/>
<path d="M87.0308 286.708V295.854H77.8727V286.708" fill="#CB9E00"/>
<path d="M68.7105 286.711V295.854H59.5482V286.711" fill="#CB9E00"/>
<path d="M77.8727 286.711V295.854H68.7105V286.711" fill="#CB9E00"/>
<path d="M50.3902 286.711V295.854H41.228V286.711" fill="#CB9E00"/>
<path d="M59.5482 286.708V295.854H50.3902V286.708" fill="#CB9E00"/>
<path d="M105.355 286.708V295.854H96.193V286.708" fill="#CB9E00"/>
<path d="M114.517 295.854H105.355V304.996H114.517V295.854Z" fill="#CB9E00"/>
<path d="M41.2238 295.854H32.0657V304.996H41.2238V295.854Z" fill="#CB9E00"/>
<path d="M96.193 295.854H87.0308V305H96.193V295.854Z" fill="#CB9E00"/>
<path d="M87.035 295.854H77.8727V305H87.035V295.854Z" fill="#CB9E00"/>
<path d="M68.7105 295.858H59.5482V305.004H68.7105V295.858Z" fill="#CB9E00"/>
<path d="M77.8727 295.858H68.7105V305.004H77.8727V295.858Z" fill="#CB9E00"/>
<path d="M50.3902 295.858H41.228V305.004H50.3902V295.858Z" fill="#CB9E00"/>
<path d="M59.5524 295.854H50.3902V305H59.5524V295.854Z" fill="#CB9E00"/>
<path d="M105.355 295.854H96.193V305H105.355V295.854Z" fill="#CB9E00"/>
<path d="M114.517 295.854V305H105.355V295.854" fill="#CB9E00"/>
<path d="M41.228 295.854V305H32.0657V295.854" fill="#CB9E00"/>
<path d="M96.193 295.854V305H87.0308V295.854" fill="#CB9E00"/>
<path d="M87.0308 295.854V305H77.8727V295.854" fill="#CB9E00"/>
<path d="M68.7105 295.858V305H59.5482V295.858" fill="#CB9E00"/>
<path d="M77.8727 295.858V305H68.7105V295.858" fill="#CB9E00"/>
<path d="M50.3902 295.858V305H41.228V295.858" fill="#CB9E00"/>
<path d="M59.5482 295.854V305H50.3902V295.854" fill="#CB9E00"/>
<path d="M105.355 295.854V305H96.193V295.854" fill="#CB9E00"/>
<path d="M105.355 277.565H96.193V286.712H105.355V277.565Z" fill="#CB9E00"/>
<path d="M105.355 268.419H96.193V277.565H105.355V268.419Z" fill="#CB9E00"/>
<path d="M87.035 277.565H77.8727V286.712H87.035V277.565Z" fill="#CB9E00"/>
<path d="M68.7105 268.419H59.5482V277.565H68.7105V268.419Z" fill="#CB9E00"/>
<path d="M77.8727 268.423H68.7105V277.565H77.8727V268.423Z" fill="#CB9E00"/>
<path d="M68.7105 277.565H59.5482V286.712H68.7105V277.565Z" fill="#CB9E00"/>
<path d="M77.8727 277.565H68.7105V286.712H77.8727V277.565Z" fill="#CB9E00"/>
<path d="M50.3902 268.419H41.228V277.565H50.3902V268.419Z" fill="#CB9E00"/>
<path d="M50.3902 277.565H41.228V286.712H50.3902V277.565Z" fill="#CB9E00"/>
<path d="M59.5524 268.423H50.3902V277.565H59.5524V268.423Z" fill="#CB9E00"/>
<path d="M59.5524 277.565H50.3902V286.712H59.5524V277.565Z" fill="#CB9E00"/>
<path d="M87.035 268.419H77.8727V277.565H87.035V268.419Z" fill="#CB9E00"/>
<path d="M114.517 140.391H105.355V149.537H114.517V140.391Z" fill="#CB9E00"/>
<path d="M105.355 140.391H96.193V149.537H105.355V140.391Z" fill="#CB9E00"/>
<path d="M123.68 140.391H114.517V149.537H123.68V140.391Z" fill="#CB9E00"/>
<path d="M96.193 140.391H87.0308V149.537H96.193V140.391Z" fill="#CB9E00"/>
<path d="M68.7105 140.391H59.5482V149.537H68.7105V140.391Z" fill="#CB9E00"/>
<path d="M77.8727 140.391H68.7105V149.537H77.8727V140.391Z" fill="#CB9E00"/>
<path d="M50.3902 140.391H41.228V149.537H50.3902V140.391Z" fill="#CB9E00"/>
<path d="M32.0657 140.391H22.9035V149.537H32.0657V140.391Z" fill="#CB9E00"/>
<path d="M59.5524 140.391H50.3902V149.537H59.5524V140.391Z" fill="#CB9E00"/>
<path d="M87.035 140.391H77.8727V149.537H87.035V140.391Z" fill="#CB9E00"/>
<path d="M132.838 122.103H123.676V131.249H132.838V122.103Z" fill="#CB9E00"/>
<path d="M114.517 122.103H105.355V131.249H114.517V122.103Z" fill="#CB9E00"/>
<path d="M105.355 122.103H96.193V131.249H105.355V122.103Z" fill="#CB9E00"/>
<path d="M123.68 122.103H114.517V131.249H123.68V122.103Z" fill="#CB9E00"/>
<path d="M96.193 122.103H87.0308V131.249H96.193V122.103Z" fill="#CB9E00"/>
<path d="M68.7105 122.103H59.5482V131.249H68.7105V122.103Z" fill="#CB9E00"/>
<path d="M77.8727 122.103H68.7105V131.249H77.8727V122.103Z" fill="#CB9E00"/>
<path d="M50.3902 122.103H41.228V131.249H50.3902V122.103Z" fill="#CB9E00"/>
<path d="M32.0657 122.103H22.9035V131.249H32.0657V122.103Z" fill="#CB9E00"/>
<path d="M22.9035 131.249H13.7413V140.395H22.9035V131.249Z" fill="#CB9E00"/>
<path d="M22.9035 149.538H13.7413V158.684H22.9035V149.538Z" fill="#CB9E00"/>
<path d="M22.9035 158.684H13.7413V167.83H22.9035V158.684Z" fill="#CB9E00"/>
<path d="M22.9035 140.391H13.7413V149.537H22.9035V140.391Z" fill="#CB9E00"/>
<path d="M22.9035 122.103H13.7413V131.249H22.9035V122.103Z" fill="#CB9E00"/>
<path d="M59.5524 122.103H50.3902V131.249H59.5524V122.103Z" fill="#CB9E00"/>
<path d="M87.0308 122.103H77.8727V131.249H87.0308V122.103Z" fill="#CB9E00"/>
<path d="M41.228 131.249H32.0657V140.395H41.228V131.249Z" fill="#CB9E00"/>
<path d="M41.2238 149.538H32.0657V158.684H41.2238V149.538Z" fill="#CB9E00"/>
<path d="M41.2238 158.684H32.0657V167.83H41.2238V158.684Z" fill="#CB9E00"/>
<path d="M41.2238 140.391H32.0657V149.537H41.2238V140.391Z" fill="#CB9E00"/>
<path d="M41.2238 122.103H32.0657V131.249H41.2238V122.103Z" fill="#CB9E00"/>
<path d="M50.3902 85.5215H41.228V94.6678H50.3902V85.5215Z" fill="#CB9E00"/>
<path d="M32.0657 85.5215H22.9035V94.6678H32.0657V85.5215Z" fill="#CB9E00"/>
<path d="M68.7105 85.5215H59.5482V94.6678H68.7105V85.5215Z" fill="#CB9E00"/>
<path d="M77.8727 85.5215H68.7105V94.6678H77.8727V85.5215Z" fill="#CB9E00"/>
<path d="M59.5524 85.5215H50.3902V94.6678H59.5524V85.5215Z" fill="#CB9E00"/>
<path d="M87.035 85.5215H77.8727V94.6678H87.035V85.5215Z" fill="#CB9E00"/>
<path d="M114.517 85.5215H105.355V94.6678H114.517V85.5215Z" fill="#CB9E00"/>
<path d="M105.355 85.5215H96.193V94.6678H105.355V85.5215Z" fill="#CB9E00"/>
<path d="M132.838 85.5215H123.676V94.6678H132.838V85.5215Z" fill="#CB9E00"/>
<path d="M123.68 85.5215H114.517V94.6678H123.68V85.5215Z" fill="#CB9E00"/>
<path d="M96.193 85.5215H87.0308V94.6678H96.193V85.5215Z" fill="#CB9E00"/>
<path d="M132.838 103.81H123.676V112.956H132.838V103.81Z" fill="#CB9E00"/>
<path d="M132.838 112.957H123.676V122.099H132.838V112.957Z" fill="#CB9E00"/>
<path d="M114.517 103.81H105.355V112.956H114.517V103.81Z" fill="#CB9E00"/>
<path d="M105.355 103.81H96.193V112.956H105.355V103.81Z" fill="#CB9E00"/>
<path d="M114.517 112.957H105.355V122.099H114.517V112.957Z" fill="#CB9E00"/>
<path d="M105.355 112.957H96.193V122.099H105.355V112.957Z" fill="#CB9E00"/>
<path d="M123.68 103.81H114.517V112.956H123.68V103.81Z" fill="#CB9E00"/>
<path d="M96.193 112.957H87.0308V122.103H96.193V112.957Z" fill="#CB9E00"/>
<path d="M123.68 112.957H114.517V122.103H123.68V112.957Z" fill="#CB9E00"/>
<path d="M96.193 103.81H87.0308V112.956H96.193V103.81Z" fill="#CB9E00"/>
<path d="M87.0308 112.957H77.8727V122.103H87.0308V112.957Z" fill="#CB9E00"/>
<path d="M68.7105 103.81H59.5482V112.956H68.7105V103.81Z" fill="#CB9E00"/>
<path d="M77.8727 103.81H68.7105V112.956H77.8727V103.81Z" fill="#CB9E00"/>
<path d="M68.7105 112.957H59.5482V122.099H68.7105V112.957Z" fill="#CB9E00"/>
<path d="M77.8727 112.957H68.7105V122.099H77.8727V112.957Z" fill="#CB9E00"/>
<path d="M50.3902 103.81H41.228V112.956H50.3902V103.81Z" fill="#CB9E00"/>
<path d="M32.0657 103.81H22.9035V112.956H32.0657V103.81Z" fill="#CB9E00"/>
<path d="M50.3902 112.957H41.228V122.099H50.3902V112.957Z" fill="#CB9E00"/>
<path d="M32.0657 112.957H22.9035V122.099H32.0657V112.957Z" fill="#CB9E00"/>
<path d="M59.5524 103.81H50.3902V112.956H59.5524V103.81Z" fill="#CB9E00"/>
<path d="M59.5524 112.957H50.3902V122.103H59.5524V112.957Z" fill="#CB9E00"/>
<path d="M87.0308 103.81H77.8727V112.956H87.0308V103.81Z" fill="#CB9E00"/>
<path d="M132.838 94.668H123.676V103.81H132.838V94.668Z" fill="#CB9E00"/>
<path d="M114.517 94.668H105.355V103.81H114.517V94.668Z" fill="#CB9E00"/>
<path d="M105.355 94.668H96.193V103.81H105.355V94.668Z" fill="#CB9E00"/>
<path d="M123.68 94.668H114.517V103.81H123.68V94.668Z" fill="#CB9E00"/>
<path d="M96.193 94.668H87.0308V103.81H96.193V94.668Z" fill="#CB9E00"/>
<path d="M68.7105 94.668H59.5482V103.81H68.7105V94.668Z" fill="#CB9E00"/>
<path d="M77.8727 94.668H68.7105V103.81H77.8727V94.668Z" fill="#CB9E00"/>
<path d="M50.3902 94.668H41.228V103.81H50.3902V94.668Z" fill="#CB9E00"/>
<path d="M32.0657 94.668H22.9035V103.81H32.0657V94.668Z" fill="#CB9E00"/>
<path d="M59.5524 94.668H50.3902V103.81H59.5524V94.668Z" fill="#CB9E00"/>
<path d="M87.0308 94.668H77.8727V103.81H87.0308V94.668Z" fill="#CB9E00"/>
<path d="M132.838 76.3755H123.676V85.5218H132.838V76.3755Z" fill="#CB9E00"/>
<path d="M114.517 76.3755H105.355V85.5218H114.517V76.3755Z" fill="#CB9E00"/>
<path d="M105.355 76.3755H96.193V85.5218H105.355V76.3755Z" fill="#CB9E00"/>
<path d="M123.68 76.3794H114.517V85.5257H123.68V76.3794Z" fill="#CB9E00"/>
<path d="M96.193 76.3755H87.0308V85.5218H96.193V76.3755Z" fill="#CB9E00"/>
<path d="M68.7105 76.3755H59.5482V85.5218H68.7105V76.3755Z" fill="#CB9E00"/>
<path d="M77.8727 76.3794H68.7105V85.5257H77.8727V76.3794Z" fill="#CB9E00"/>
<path d="M50.3902 76.3755H41.228V85.5218H50.3902V76.3755Z" fill="#CB9E00"/>
<path d="M32.0657 76.3755H22.9035V85.5218H32.0657V76.3755Z" fill="#CB9E00"/>
<path d="M22.9035 85.5215H13.7413V94.6678H22.9035V85.5215Z" fill="#CB9E00"/>
<path d="M22.9035 103.81H13.7413V112.956H22.9035V103.81Z" fill="#CB9E00"/>
<path d="M22.9035 112.957H13.7413V122.099H22.9035V112.957Z" fill="#CB9E00"/>
<path d="M22.9035 94.668H13.7413V103.81H22.9035V94.668Z" fill="#CB9E00"/>
<path d="M22.9035 76.3755H13.7413V85.5218H22.9035V76.3755Z" fill="#CB9E00"/>
<path d="M59.5524 76.3794H50.3902V85.5257H59.5524V76.3794Z" fill="#CB9E00"/>
<path d="M87.0308 76.3755H77.8727V85.5218H87.0308V76.3755Z" fill="#CB9E00"/>
<path d="M41.228 85.5215H32.0657V94.6678H41.228V85.5215Z" fill="#CB9E00"/>
<path d="M41.2238 103.81H32.0657V112.956H41.2238V103.81Z" fill="#CB9E00"/>
<path d="M41.2238 112.957H32.0657V122.099H41.2238V112.957Z" fill="#CB9E00"/>
<path d="M41.2238 94.668H32.0657V103.81H41.2238V94.668Z" fill="#CB9E00"/>
<path d="M13.7454 131.249H4.58321V140.395H13.7454V131.249Z" fill="#CB9E00"/>
<path d="M13.7454 149.538H4.58321V158.684H13.7454V149.538Z" fill="#CB9E00"/>
<path d="M13.7454 140.391H4.58321V149.537H13.7454V140.391Z" fill="#CB9E00"/>
<path d="M13.7454 122.103H4.58321V131.249H13.7454V122.103Z" fill="#CB9E00"/>
<path d="M41.2238 76.3755H32.0657V85.5218H41.2238V76.3755Z" fill="#CB9E00"/>
<path d="M132.838 58.0869H123.676V67.2332H132.838V58.0869Z" fill="#CB9E00"/>
<path d="M132.838 67.2334H123.676V76.3755H132.838V67.2334Z" fill="#CB9E00"/>
<path d="M114.517 58.0869H105.355V67.2332H114.517V58.0869Z" fill="#CB9E00"/>
<path d="M105.355 58.0869H96.193V67.2332H105.355V58.0869Z" fill="#CB9E00"/>
<path d="M114.517 67.2334H105.355V76.3755H114.517V67.2334Z" fill="#CB9E00"/>
<path d="M105.355 67.2334H96.193V76.3755H105.355V67.2334Z" fill="#CB9E00"/>
<path d="M123.68 58.0869H114.517V67.2332H123.68V58.0869Z" fill="#CB9E00"/>
<path d="M96.193 67.2334H87.0308V76.3797H96.193V67.2334Z" fill="#CB9E00"/>
<path d="M123.68 67.2334H114.517V76.3797H123.68V67.2334Z" fill="#CB9E00"/>
<path d="M96.193 58.0869H87.0308V67.2332H96.193V58.0869Z" fill="#CB9E00"/>
<path d="M87.0308 67.2334H77.8727V76.3797H87.0308V67.2334Z" fill="#CB9E00"/>
<path d="M68.7105 58.0869H59.5482V67.2332H68.7105V58.0869Z" fill="#CB9E00"/>
<path d="M77.8727 58.0869H68.7105V67.2332H77.8727V58.0869Z" fill="#CB9E00"/>
<path d="M68.7105 67.2334H59.5482V76.3755H68.7105V67.2334Z" fill="#CB9E00"/>
<path d="M77.8727 67.2334H68.7105V76.3755H77.8727V67.2334Z" fill="#CB9E00"/>
<path d="M50.3902 58.0869H41.228V67.2332H50.3902V58.0869Z" fill="#CB9E00"/>
<path d="M32.0657 58.0869H22.9035V67.2332H32.0657V58.0869Z" fill="#CB9E00"/>
<path d="M50.3902 67.2334H41.228V76.3755H50.3902V67.2334Z" fill="#CB9E00"/>
<path d="M32.0657 67.2334H22.9035V76.3755H32.0657V67.2334Z" fill="#CB9E00"/>
<path d="M59.5524 58.0869H50.3902V67.2332H59.5524V58.0869Z" fill="#CB9E00"/>
<path d="M59.5524 67.2334H50.3902V76.3797H59.5524V67.2334Z" fill="#CB9E00"/>
<path d="M87.0308 58.0869H77.8727V67.2332H87.0308V58.0869Z" fill="#CB9E00"/>
<path d="M96.193 48.9404H87.0308V58.0826H96.193V48.9404Z" fill="#CB9E00"/>
<path d="M68.7105 48.9404H59.5482V58.0826H68.7105V48.9404Z" fill="#CB9E00"/>
<path d="M59.5524 48.9404H50.3902V58.0826H59.5524V48.9404Z" fill="#CB9E00"/>
<path d="M87.0308 48.9404H77.8727V58.0826H87.0308V48.9404Z" fill="#CB9E00"/>
<path d="M22.9035 58.0869H13.7413V67.2332H22.9035V58.0869Z" fill="#CB9E00"/>
<path d="M22.9035 67.2334H13.7413V76.3755H22.9035V67.2334Z" fill="#CB9E00"/>
<path d="M41.2238 58.0869H32.0657V67.2332H41.2238V58.0869Z" fill="#CB9E00"/>
<path d="M41.2238 67.2334H32.0657V76.3755H41.2238V67.2334Z" fill="#CB9E00"/>
<path d="M50.3902 48.9404H41.228V58.0868H50.3902V48.9404Z" fill="#CB9E00"/>
<path d="M32.0657 48.9404H22.9035V58.0868H32.0657V48.9404Z" fill="#CB9E00"/>
<path d="M114.517 48.9404H105.355V58.0868H114.517V48.9404Z" fill="#CB9E00"/>
<path d="M105.355 48.9404H96.193V58.0868H105.355V48.9404Z" fill="#CB9E00"/>
<path d="M132.838 48.9404H123.676V58.0868H132.838V48.9404Z" fill="#CB9E00"/>
<path d="M123.68 48.9404H114.517V58.0868H123.68V48.9404Z" fill="#CB9E00"/>
<path d="M132.838 30.6479H123.676V39.7943H132.838V30.6479Z" fill="#CB9E00"/>
<path d="M114.517 30.6479H105.355V39.7943H114.517V30.6479Z" fill="#CB9E00"/>
<path d="M105.355 30.6479H96.193V39.7943H105.355V30.6479Z" fill="#CB9E00"/>
<path d="M123.68 30.6519H114.517V39.7982H123.68V30.6519Z" fill="#CB9E00"/>
<path d="M50.3902 30.6479H41.228V39.7943H50.3902V30.6479Z" fill="#CB9E00"/>
<path d="M32.0657 30.6479H22.9035V39.7943H32.0657V30.6479Z" fill="#CB9E00"/>
<path d="M22.9035 48.9404H13.7413V58.0868H22.9035V48.9404Z" fill="#CB9E00"/>
<path d="M22.9035 30.6479H13.7413V39.7943H22.9035V30.6479Z" fill="#CB9E00"/>
<path d="M41.228 48.9404H32.0657V58.0868H41.228V48.9404Z" fill="#CB9E00"/>
<path d="M41.2238 30.6479H32.0657V39.7943H41.2238V30.6479Z" fill="#CB9E00"/>
<path d="M132.838 39.7944H123.676V48.9408H132.838V39.7944Z" fill="#CB9E00"/>
<path d="M114.517 39.7944H105.355V48.9408H114.517V39.7944Z" fill="#CB9E00"/>
<path d="M105.355 39.7944H96.193V48.9408H105.355V39.7944Z" fill="#CB9E00"/>
<path d="M123.68 39.7983H114.517V48.9447H123.68V39.7983Z" fill="#CB9E00"/>
<path d="M50.3902 39.7944H41.228V48.9408H50.3902V39.7944Z" fill="#CB9E00"/>
<path d="M32.0657 39.7944H22.9035V48.9408H32.0657V39.7944Z" fill="#CB9E00"/>
<path d="M22.9035 39.7944H13.7413V48.9408H22.9035V39.7944Z" fill="#CB9E00"/>
<path d="M41.2238 39.7944H32.0657V48.9408H41.2238V39.7944Z" fill="#CB9E00"/>
<path d="M132.838 12.3594H123.676V21.5057H132.838V12.3594Z" fill="#CB9E00"/>
<path d="M132.838 21.5059H123.676V30.648H132.838V21.5059Z" fill="#CB9E00"/>
<path d="M114.517 12.3594H105.355V21.5057H114.517V12.3594Z" fill="#CB9E00"/>
<path d="M105.355 12.3594H96.193V21.5057H105.355V12.3594Z" fill="#CB9E00"/>
<path d="M114.517 21.5059H105.355V30.648H114.517V21.5059Z" fill="#CB9E00"/>
<path d="M105.355 21.5059H96.193V30.648H105.355V21.5059Z" fill="#CB9E00"/>
<path d="M123.68 12.3594H114.517V21.5057H123.68V12.3594Z" fill="#CB9E00"/>
<path d="M123.68 21.5059H114.517V30.6522H123.68V21.5059Z" fill="#CB9E00"/>
<path d="M50.3902 12.3594H41.228V21.5057H50.3902V12.3594Z" fill="#CB9E00"/>
<path d="M32.0657 12.3594H22.9035V21.5057H32.0657V12.3594Z" fill="#CB9E00"/>
<path d="M50.3902 21.5059H41.228V30.648H50.3902V21.5059Z" fill="#CB9E00"/>
<path d="M32.0657 21.5059H22.9035V30.648H32.0657V21.5059Z" fill="#CB9E00"/>
<path d="M22.9035 12.3594H13.7413V21.5057H22.9035V12.3594Z" fill="#CB9E00"/>
<path d="M22.9035 21.5059H13.7413V30.648H22.9035V21.5059Z" fill="#CB9E00"/>
<path d="M41.2238 12.3594H32.0657V21.5057H41.2238V12.3594Z" fill="#CB9E00"/>
<path d="M114.517 3.21289H105.355V12.3592H114.517V3.21289Z" fill="#CB9E00"/>
<path d="M123.68 3.21289H114.517V12.3592H123.68V3.21289Z" fill="#CB9E00"/>
<path d="M32.0657 3.21289H22.9035V12.3592H32.0657V3.21289Z" fill="#CB9E00"/>
<path d="M41.2238 3.21289H32.0657V12.3592H41.2238V3.21289Z" fill="#CB9E00"/>
<path d="M41.2238 21.5059H32.0657V30.648H41.2238V21.5059Z" fill="#CB9E00"/>
<path d="M123.68 122.103H114.517V131.249H123.68V122.103Z" fill="#CB9E00"/>
<path d="M123.68 112.957H114.517V122.099H123.68V112.957Z" fill="#CB9E00"/>
<path d="M132.838 112.957H123.676V122.103H132.838V112.957Z" fill="#CB9E00"/>
<path d="M123.68 131.245H114.517V140.391H123.68V131.245Z" fill="#CB9E00"/>
<path d="M132.838 131.245H123.676V140.391H132.838V131.245Z" fill="#CB9E00"/>
<path d="M132.838 122.103H123.676V131.249H132.838V122.103Z" fill="#CB9E00"/>
<path d="M123.68 140.391H114.517V149.537H123.68V140.391Z" fill="#CB9E00"/>
<path d="M123.68 149.538H114.517V158.684H123.68V149.538Z" fill="#CB9E00"/>
<path d="M132.838 149.538H123.676V158.68H132.838V149.538Z" fill="#CB9E00"/>
<path d="M132.838 140.391H123.676V149.537H132.838V140.391Z" fill="#CB9E00"/>
<path d="M132.838 140.391H123.676V149.537H132.838V140.391Z" fill="#CB9E00"/>
<path d="M132.838 149.538H123.676V158.684H132.838V149.538Z" fill="#CB9E00"/>
<path d="M123.68 158.684H114.517V167.83H123.68V158.684Z" fill="#CB9E00"/>
<path d="M132.838 158.684H123.676V167.83H132.838V158.684Z" fill="#CB9E00"/>
<path d="M132.838 158.684H123.676V167.83H132.838V158.684Z" fill="#CB9E00"/>
<path d="M114.517 167.826H105.355V176.972H114.517V167.826Z" fill="#CB9E00"/>
<path d="M105.355 167.826H96.193V176.972H105.355V167.826Z" fill="#CB9E00"/>
<path d="M96.193 167.826H87.0308V176.972H96.193V167.826Z" fill="#CB9E00"/>
<path d="M123.68 167.826H114.517V176.972H123.68V167.826Z" fill="#CB9E00"/>
<path d="M87.035 167.826H77.8727V176.972H87.035V167.826Z" fill="#CB9E00"/>
<path d="M68.7105 167.826H59.5482V176.972H68.7105V167.826Z" fill="#CB9E00"/>
<path d="M77.8727 167.826H68.7105V176.972H77.8727V167.826Z" fill="#CB9E00"/>
<path d="M50.3902 167.826H41.228V176.972H50.3902V167.826Z" fill="#CB9E00"/>
<path d="M32.0657 167.826H22.9035V176.972H32.0657V167.826Z" fill="#CB9E00"/>
<path d="M59.5524 167.826H50.3902V176.972H59.5524V167.826Z" fill="#CB9E00"/>
<path d="M22.9035 167.826H13.7413V176.972H22.9035V167.826Z" fill="#CB9E00"/>
<path d="M41.2238 167.826H32.0657V176.972H41.2238V167.826Z" fill="#CB9E00"/>
<path d="M123.68 167.826H114.517V176.972H123.68V167.826Z" fill="#CB9E00"/>
<path d="M109.934 182.906H100.772V192.048H109.934V182.906Z" fill="#1D1D1B"/>
<path d="M100.772 182.906H91.6098V192.048H100.772V182.906Z" fill="#1D1D1B"/>
<path d="M91.614 182.906H82.4518V192.048H91.614V182.906Z" fill="#1D1D1B"/>
<path d="M82.4518 182.906H73.2895V192.048H82.4518V182.906Z" fill="#1D1D1B"/>
<path d="M64.1315 182.906H54.9692V192.048H64.1315V182.906Z" fill="#1D1D1B"/>
<path d="M73.2937 182.906H64.1315V192.048H73.2937V182.906Z" fill="#1D1D1B"/>
<path d="M45.807 182.906H36.6448V192.048H45.807V182.906Z" fill="#1D1D1B"/>
<path d="M54.9692 182.906H45.807V192.048H54.9692V182.906Z" fill="#1D1D1B"/>
<path d="M36.6448 182.906H27.4867V192.048H36.6448V182.906Z" fill="#1D1D1B"/>
<path d="M109.934 192.052H100.772V201.194H109.934V192.052Z" fill="#1D1D1B"/>
<path d="M36.6448 192.052H27.4867V201.194H36.6448V192.052Z" fill="#1D1D1B"/>
<path d="M109.934 201.194H100.772V210.336H109.934V201.194Z" fill="#1D1D1B"/>
<path d="M36.6448 201.194H27.4867V210.336H36.6448V201.194Z" fill="#1D1D1B"/>
<path d="M109.934 210.34H100.772V219.482H109.934V210.34Z" fill="#1D1D1B"/>
<path d="M36.6448 210.34H27.4867V219.482H36.6448V210.34Z" fill="#1D1D1B"/>
<path d="M109.934 173.763H100.772V182.905H109.934V173.763Z" fill="#1D1D1B"/>
<path d="M100.772 173.763H91.6098V182.905H100.772V173.763Z" fill="#D9BC99"/>
<path d="M91.614 173.759H82.4518V182.906H91.614V173.759Z" fill="#D9BC99"/>
<path d="M82.4518 173.759H73.2895V182.906H82.4518V173.759Z" fill="#D9BC99"/>
<path d="M64.1315 173.763H54.9692V182.905H64.1315V173.763Z" fill="#D9BC99"/>
<path d="M73.2937 173.763H64.1315V182.905H73.2937V173.763Z" fill="#D9BC99"/>
<path d="M45.807 173.763H36.6448V182.905H45.807V173.763Z" fill="#D9BC99"/>
<path d="M27.4867 173.763H18.3245V182.905H27.4867V173.763Z" fill="#1D1D1B"/>
<path d="M54.9692 173.759H45.807V182.906H54.9692V173.759Z" fill="#D9BC99"/>
<path d="M36.6448 173.763H27.4867V182.905H36.6448V173.763Z" fill="#1D1D1B"/>
<path d="M45.807 128.036H36.6448V137.182H45.807V128.036Z" fill="#1D1D1B"/>
<path d="M27.4867 128.036H18.3245V137.182H27.4867V128.036Z" fill="#FDDAB0"/>
<path d="M64.1315 128.036H54.9692V137.182H64.1315V128.036Z" fill="#E8C9A3"/>
<path d="M73.2937 128.036H64.1315V137.182H73.2937V128.036Z" fill="#FDDAB0"/>
<path d="M54.9692 128.036H45.807V137.182H54.9692V128.036Z" fill="#E8C9A3"/>
<path d="M82.4518 128.036H73.2895V137.182H82.4518V128.036Z" fill="#FEE1B3"/>
<path d="M109.934 128.036H100.772V137.182H109.934V128.036Z" fill="#FDDAB0"/>
<path d="M100.772 128.036H91.6098V137.182H100.772V128.036Z" fill="#FDDAB0"/>
<path d="M128.259 128.036H119.097V137.182H128.259V128.036Z" fill="#1D1D1B"/>
<path d="M119.097 128.036H109.934V137.182H119.097V128.036Z" fill="#FDDAB0"/>
<path d="M91.614 128.036H82.4518V137.182H91.614V128.036Z" fill="#FDDAB0"/>
<path d="M109.934 146.324H100.772V155.471H109.934V146.324Z" fill="#EECEA7"/>
<path d="M100.772 146.324H91.6098V155.471H100.772V146.324Z" fill="#EECEA7"/>
<path d="M109.934 155.471H100.772V164.617H109.934V155.471Z" fill="#EECEA7"/>
<path d="M100.772 155.471H91.6098V164.617H100.772V155.471Z" fill="#EECEA7"/>
<path d="M119.097 146.324H109.934V155.466H119.097V146.324Z" fill="#FDDAB0"/>
<path d="M91.614 155.471H82.4518V164.617H91.614V155.471Z" fill="#EECEA7"/>
<path d="M119.097 155.471H109.934V164.617H119.097V155.471Z" fill="#FDDAB0"/>
<path d="M91.614 146.324H82.4518V155.471H91.614V146.324Z" fill="#FDDAB0"/>
<path d="M82.4518 155.471H73.2895V164.617H82.4518V155.471Z" fill="#EECEA7"/>
<path d="M64.1315 146.324H54.9692V155.471H64.1315V146.324Z" fill="#FDDAB0"/>
<path d="M73.2937 146.324H64.1315V155.466H73.2937V146.324Z" fill="#FDDAB0"/>
<path d="M64.1315 155.471H54.9692V164.617H64.1315V155.471Z" fill="#EECEA7"/>
<path d="M73.2937 155.471H64.1315V164.617H73.2937V155.471Z" fill="#EECEA7"/>
<path d="M45.807 146.324H36.6448V155.471H45.807V146.324Z" fill="#FDDAB0"/>
<path d="M27.4867 146.324H18.3245V155.471H27.4867V146.324Z" fill="#FDDAB0"/>
<path d="M45.807 155.471H36.6448V164.617H45.807V155.471Z" fill="#EECEA7"/>
<path d="M27.4867 155.471H18.3245V164.617H27.4867V155.471Z" fill="#EECEA7"/>
<path d="M54.9692 146.324H45.807V155.466H54.9692V146.324Z" fill="#FDDAB0"/>
<path d="M54.9692 155.471H45.807V164.617H54.9692V155.471Z" fill="#EECEA7"/>
<path d="M82.4518 146.324H73.2895V155.471H82.4518V146.324Z" fill="#FDDAB0"/>
<path d="M91.614 210.336H82.4518V219.482H91.614V210.336Z" fill="#1D1D1B"/>
<path d="M82.4518 210.336H73.2895V219.482H82.4518V210.336Z" fill="#1D1D1B"/>
<path d="M64.1315 210.34H54.9692V219.487H64.1315V210.34Z" fill="#1D1D1B"/>
<path d="M73.2937 210.34H64.1315V219.487H73.2937V210.34Z" fill="#1D1D1B"/>
<path d="M45.807 210.34H36.6448V219.487H45.807V210.34Z" fill="#1D1D1B"/>
<path d="M54.9692 210.336H45.807V219.482H54.9692V210.336Z" fill="#1D1D1B"/>
<path d="M91.614 201.194H82.4518V210.34H91.614V201.194Z" fill="#EECEA7"/>
<path d="M91.614 192.052H82.4518V201.198H91.614V192.052Z" fill="#EECEA7"/>
<path d="M100.772 210.336H91.6098V219.482H100.772V210.336Z" fill="#1D1D1B"/>
<path d="M109.934 210.34V219.482H100.772V210.34" fill="#1D1D1B"/>
<path d="M36.6448 210.34V219.482H27.4867V210.34" fill="#1D1D1B"/>
<path d="M91.6098 210.336V219.482H82.4518V210.336" fill="#1D1D1B"/>
<path d="M82.4518 210.336V219.482H73.2895V210.336" fill="#1D1D1B"/>
<path d="M64.1315 210.34V219.482H54.9692V210.34" fill="#1D1D1B"/>
<path d="M73.2895 210.34V219.482H64.1315V210.34" fill="#1D1D1B"/>
<path d="M45.807 210.34V219.482H36.6448V210.34" fill="#1D1D1B"/>
<path d="M54.9692 210.336V219.482H45.807V210.336" fill="#1D1D1B"/>
<path d="M100.772 210.336V219.482H91.6098V210.336" fill="#1D1D1B"/>
<path d="M109.934 219.487H100.772V228.629H109.934V219.487Z" fill="#E30613"/>
<path d="M36.6448 219.487H27.4867V228.629H36.6448V219.487Z" fill="#E30613"/>
<path d="M91.614 219.482H82.4518V228.629H91.614V219.482Z" fill="#E30613"/>
<path d="M82.4518 219.482H73.2895V228.629H82.4518V219.482Z" fill="#E30613"/>
<path d="M64.1315 219.487H54.9692V228.633H64.1315V219.487Z" fill="#E30613"/>
<path d="M73.2937 219.487H64.1315V228.633H73.2937V219.487Z" fill="#E30613"/>
<path d="M45.807 219.487H36.6448V228.633H45.807V219.487Z" fill="#E30613"/>
<path d="M54.9692 219.482H45.807V228.629H54.9692V219.482Z" fill="#E30613"/>
<path d="M100.772 219.482H91.6098V228.629H100.772V219.482Z" fill="#E30613"/>
<path d="M109.934 219.487V228.629H100.772V219.487" fill="#E30613"/>
<path d="M36.6448 219.487V228.629H27.4867V219.487" fill="#E30613"/>
<path d="M91.6098 219.482V228.629H82.4518V219.482" fill="#E30613"/>
<path d="M82.4518 219.482V228.629H73.2895V219.482" fill="#E30613"/>
<path d="M64.1315 219.487V228.629H54.9692V219.487" fill="#E30613"/>
<path d="M73.2895 219.487V228.629H64.1315V219.487" fill="#E30613"/>
<path d="M45.807 219.487V228.629H36.6448V219.487" fill="#E30613"/>
<path d="M54.9692 219.482V228.629H45.807V219.482" fill="#E30613"/>
<path d="M100.772 219.482V228.629H91.6098V219.482" fill="#E30613"/>
<path d="M100.772 201.194H91.6098V210.34H100.772V201.194Z" fill="#FEE1B3"/>
<path d="M100.772 192.052H91.6098V201.198H100.772V192.052Z" fill="#EECEA7"/>
<path d="M82.4518 201.194H73.2895V210.34H82.4518V201.194Z" fill="#EECEA7"/>
<path d="M64.1315 192.052H54.9692V201.198H64.1315V192.052Z" fill="#EECEA7"/>
<path d="M73.2937 192.052H64.1315V201.194H73.2937V192.052Z" fill="#EECEA7"/>
<path d="M64.1315 201.194H54.9692V210.34H64.1315V201.194Z" fill="#EECEA7"/>
<path d="M73.2937 201.194H64.1315V210.34H73.2937V201.194Z" fill="#EECEA7"/>
<path d="M45.807 192.052H36.6448V201.198H45.807V192.052Z" fill="#EECEA7"/>
<path d="M45.807 201.194H36.6448V210.34H45.807V201.194Z" fill="#EECEA7"/>
<path d="M54.9692 192.052H45.807V201.194H54.9692V192.052Z" fill="#EECEA7"/>
<path d="M54.9692 201.194H45.807V210.34H54.9692V201.194Z" fill="#FEEDD9"/>
<path d="M82.4518 192.052H73.2895V201.198H82.4518V192.052Z" fill="#EECEA7"/>
<path d="M109.934 228.629H100.772V237.771H109.934V228.629Z" fill="#E6E6E6"/>
<path d="M109.934 210.34V219.482H100.772" fill="#1D1D1B"/>
<path d="M109.934 210.34V219.482H100.772" fill="#1D1D1B"/>
<path d="M100.772 219.487H109.934V228.629H100.772" fill="#E30613"/>
<path d="M109.934 219.487V228.629H100.772" fill="#E30613"/>
<path d="M100.772 228.629H109.934V237.775" fill="#E6E6E6"/>
<path d="M36.6448 228.629H27.4867V237.771H36.6448V228.629Z" fill="#E6E6E6"/>
<path d="M109.934 237.775H100.772V246.918H109.934V237.775Z" fill="#1D1D1B"/>
<path d="M36.6448 237.775H27.4867V246.918H36.6448V237.775Z" fill="#1D1D1B"/>
<path d="M91.614 237.775H82.4518V246.918H91.614V237.775Z" fill="#1D1D1B"/>
<path d="M91.614 228.629H82.4518V237.775H91.614V228.629Z" fill="#E6E6E6"/>
<path d="M109.934 256.063H100.772V265.206H109.934V256.063Z" fill="#1D1D1B"/>
<path d="M36.6448 256.063H27.4867V265.206H36.6448V256.063Z" fill="#1D1D1B"/>
<path d="M91.614 256.063H82.4518V265.21H91.614V256.063Z" fill="#FEE1B3"/>
<path d="M82.4518 256.063H73.2895V265.21H82.4518V256.063Z" fill="#FEE1B3"/>
<path d="M64.1315 256.063H54.9692V265.21H64.1315V256.063Z" fill="#FEE1B3"/>
<path d="M73.2937 256.063H64.1315V265.21H73.2937V256.063Z" fill="#FEE1B3"/>
<path d="M45.807 256.063H36.6448V265.21H45.807V256.063Z" fill="#EECEA7"/>
<path d="M54.9692 256.063H45.807V265.21H54.9692V256.063Z" fill="#FEEDD9"/>
<path d="M100.772 256.063H91.6098V265.21H100.772V256.063Z" fill="#FEE1B3"/>
<path d="M109.934 256.063V265.206H100.772V256.063" fill="#1D1D1B"/>
<path d="M36.6448 256.063V265.206H27.4867V256.063" fill="#1D1D1B"/>
<path d="M91.6098 256.063V265.21H82.4518V256.063" fill="#CFB493"/>
<path d="M82.4518 256.063V265.21H73.2895V256.063" fill="#CFB493"/>
<path d="M64.1315 256.063V265.21H54.9692V256.063" fill="#CFB493"/>
<path d="M73.2895 256.063V265.21H64.1315V256.063" fill="#CFB493"/>
<path d="M45.807 256.063V265.21H36.6448V256.063" fill="#CFB493"/>
<path d="M54.9692 256.063V265.21H45.807V256.063" fill="#CFB493"/>
<path d="M100.772 256.063V265.21H91.6098V256.063" fill="#CFB493"/>
<path d="M100.772 237.775H91.6098V246.918H100.772V237.775Z" fill="#1D1D1B"/>
<path d="M100.772 228.629H91.6098V237.775H100.772V228.629Z" fill="#E30613"/>
<path d="M119.097 210.336H109.934V219.482H119.097V210.336Z" fill="#1D1D1B"/>
<path d="M119.097 210.336V219.482H109.934V210.336" fill="#1D1D1B"/>
<path d="M119.097 219.482H109.934V228.629H119.097V219.482Z" fill="#E30613"/>
<path d="M119.097 219.482V228.629H109.934V219.482" fill="#E30613"/>
<path d="M119.097 237.775H109.934V246.918H119.097V237.775Z" fill="#1D1D1B"/>
<path d="M119.097 228.629H109.934V237.775H119.097V228.629Z" fill="#E30613"/>
<path d="M27.4825 210.336H18.3203V219.482H27.4825V210.336Z" fill="#1D1D1B"/>
<path d="M27.4825 210.336V219.482H18.3203V210.336" fill="#1D1D1B"/>
<path d="M27.4825 219.482H18.3203V228.629H27.4825V219.482Z" fill="#E30613"/>
<path d="M27.4825 219.482V228.629H18.3203V219.482" fill="#E30613"/>
<path d="M27.4825 237.775H18.3203V246.918H27.4825V237.775Z" fill="#1D1D1B"/>
<path d="M27.4825 228.629H18.3203V237.775H27.4825V228.629Z" fill="#E30613"/>
<path d="M82.4518 237.775H73.2895V246.918H82.4518V237.775Z" fill="#1D1D1B"/>
<path d="M64.1315 228.629H54.9692V237.775H64.1315V228.629Z" fill="#E30613"/>
<path d="M73.2937 228.629H64.1315V237.771H73.2937V228.629Z" fill="#E6E6E6"/>
<path d="M64.1315 237.775H54.9692V246.918H64.1315V237.775Z" fill="#1D1D1B"/>
<path d="M73.2937 237.775H64.1315V246.918H73.2937V237.775Z" fill="#1D1D1B"/>
<path d="M45.807 228.629H36.6448V237.775H45.807V228.629Z" fill="#E30613"/>
<path d="M45.807 237.775H36.6448V246.918H45.807V237.775Z" fill="#1D1D1B"/>
<path d="M54.9692 228.629H45.807V237.771H54.9692V228.629Z" fill="#E6E6E6"/>
<path d="M54.9692 237.775H45.807V246.918H54.9692V237.775Z" fill="#1D1D1B"/>
<path d="M82.4518 228.629H73.2895V237.775H82.4518V228.629Z" fill="#E30613"/>
<path d="M109.934 237.775H100.772V246.918H109.934V237.775Z" fill="#E30613"/>
<path d="M100.772 237.775H109.934V246.918" fill="#E30613"/>
<path d="M36.6448 237.775H27.4867V246.918H36.6448V237.775Z" fill="#E30613"/>
<path d="M109.934 246.917H100.772V256.06H109.934V246.917Z" fill="#1D1D1B"/>
<path d="M36.6448 246.917H27.4867V256.06H36.6448V246.917Z" fill="#1D1D1B"/>
<path d="M91.614 246.917H82.4518V256.06H91.614V246.917Z" fill="#1D1D1B"/>
<path d="M91.614 237.775H82.4518V246.922H91.614V237.775Z" fill="#E30613"/>
<path d="M100.776 246.917H91.614V256.06H100.776V246.917Z" fill="#1D1D1B"/>
<path d="M100.776 237.775H91.614V246.922H100.776V237.775Z" fill="#D20A11"/>
<path d="M119.097 246.917H109.934V256.06H119.097V246.917Z" fill="#1D1D1B"/>
<path d="M119.097 237.775H109.934V246.922H119.097V237.775Z" fill="#D20A11"/>
<path d="M128.259 219.482H119.097V228.629H128.259V219.482Z" fill="#1D1D1B"/>
<path d="M128.255 219.482V228.629H119.097V219.482" fill="#1D1D1B"/>
<path d="M128.259 237.775H119.097V246.918H128.259V237.775Z" fill="#1D1D1B"/>
<path d="M128.259 228.629H119.097V237.775H128.259V228.629Z" fill="#E6E6E6"/>
<path d="M137.421 228.629H128.259V237.775H137.421V228.629Z" fill="#EDEDED"/>
<path d="M128.259 237.775H119.097V246.922H128.259V237.775Z" fill="#1D1D1B"/>
<path d="M27.4867 246.917H18.3245V256.06H27.4867V246.917Z" fill="#1D1D1B"/>
<path d="M27.4867 237.775H18.3245V246.922H27.4867V237.775Z" fill="#E30613"/>
<path d="M18.3245 219.482H9.16223V228.629H18.3245V219.482Z" fill="#1D1D1B"/>
<path d="M18.3203 219.482V228.629H9.16223V219.482" fill="#1D1D1B"/>
<path d="M18.3245 237.775H9.16223V246.918H18.3245V237.775Z" fill="#1D1D1B"/>
<path d="M18.3245 228.629H9.16223V237.775H18.3245V228.629Z" fill="#E6E6E6"/>
<path d="M9.16224 228.629H0V237.775H9.16224V228.629Z" fill="#EDEDED"/>
<path d="M18.3245 237.775H9.16223V246.922H18.3245V237.775Z" fill="#1D1D1B"/>
<path d="M82.4518 246.917H73.2895V256.06H82.4518V246.917Z" fill="#1D1D1B"/>
<path d="M64.1315 237.775H54.9692V246.922H64.1315V237.775Z" fill="#D20A11"/>
<path d="M73.2937 237.775H64.1315V246.918H73.2937V237.775Z" fill="#E30613"/>
<path d="M64.1315 246.917H54.9692V256.06H64.1315V246.917Z" fill="#1D1D1B"/>
<path d="M73.2937 246.917H64.1315V256.06H73.2937V246.917Z" fill="#1D1D1B"/>
<path d="M45.807 237.775H36.6448V246.922H45.807V237.775Z" fill="#D20A11"/>
<path d="M45.807 246.917H36.6448V256.06H45.807V246.917Z" fill="#1D1D1B"/>
<path d="M54.9692 237.775H45.807V246.918H54.9692V237.775Z" fill="#E30613"/>
<path d="M54.9692 246.917H45.807V256.06H54.9692V246.917Z" fill="#1D1D1B"/>
<path d="M82.4518 237.775H73.2895V246.922H82.4518V237.775Z" fill="#D20A11"/>
<path d="M109.934 265.21H100.772V274.352H109.934V265.21Z" fill="#1D1D1B"/>
<path d="M36.6448 265.21H27.4867V274.352H36.6448V265.21Z" fill="#1D1D1B"/>
<path d="M109.934 274.352H100.772V283.494H109.934V274.352Z" fill="#1D1D1B"/>
<path d="M36.6448 274.352H27.4867V283.494H36.6448V274.352Z" fill="#1D1D1B"/>
<path d="M109.934 283.494H100.772V292.636H109.934V283.494Z" fill="#1D1D1B"/>
<path d="M36.6448 283.494H27.4867V292.636H36.6448V283.494Z" fill="#1D1D1B"/>
<path d="M91.614 283.494H82.4518V292.64H91.614V283.494Z" fill="#FEE1B3"/>
<path d="M82.4518 283.494H73.2895V292.64H82.4518V283.494Z" fill="#FEE1B3"/>
<path d="M64.1315 283.499H54.9692V292.645H64.1315V283.499Z" fill="#FEE1B3"/>
<path d="M73.2937 283.499H64.1315V292.645H73.2937V283.499Z" fill="#FEE1B3"/>
<path d="M45.807 283.499H36.6448V292.645H45.807V283.499Z" fill="#EECEA7"/>
<path d="M54.9692 283.494H45.807V292.64H54.9692V283.494Z" fill="#FEEDD9"/>
<path d="M91.614 274.352H82.4518V283.498H91.614V274.352Z" fill="#FEE1B3"/>
<path d="M91.614 265.206H82.4518V274.352H91.614V265.206Z" fill="#FEE1B3"/>
<path d="M100.772 283.494H91.6098V292.64H100.772V283.494Z" fill="#FEE1B3"/>
<path d="M109.934 283.494V292.64H100.772V283.494" fill="#1D1D1B"/>
<path d="M36.6448 283.494V292.64H27.4867V283.494" fill="#1D1D1B"/>
<path d="M91.6098 283.494V292.64H82.4518V283.494" fill="#FEE1B3"/>
<path d="M82.4518 283.494V292.64H73.2895V283.494" fill="#FEE1B3"/>
<path d="M64.1315 283.499V292.641H54.9692V283.499" fill="#FEE1B3"/>
<path d="M73.2895 283.499V292.641H64.1315V283.499" fill="#FEE1B3"/>
<path d="M45.807 283.499V292.641H36.6448V283.499" fill="#EECEA7"/>
<path d="M54.9692 283.494V292.64H45.807V283.494" fill="#FEEDD9"/>
<path d="M100.772 283.494V292.64H91.6098V283.494" fill="#FEE1B3"/>
<path d="M109.934 292.641H100.772V301.783H109.934V292.641Z" fill="#1D1D1B"/>
<path d="M36.6448 292.641H27.4867V301.783H36.6448V292.641Z" fill="#1D1D1B"/>
<path d="M91.614 292.641H82.4518V301.787H91.614V292.641Z" fill="#FEE1B3"/>
<path d="M82.4518 292.641H73.2895V301.787H82.4518V292.641Z" fill="#FEE1B3"/>
<path d="M64.1315 292.645H54.9692V301.791H64.1315V292.645Z" fill="#FEE1B3"/>
<path d="M73.2937 292.645H64.1315V301.791H73.2937V292.645Z" fill="#FEE1B3"/>
<path d="M45.807 292.645H36.6448V301.791H45.807V292.645Z" fill="#EECEA7"/>
<path d="M54.9692 292.641H45.807V301.787H54.9692V292.641Z" fill="#FEEDD9"/>
<path d="M100.772 292.641H91.6098V301.787H100.772V292.641Z" fill="#FEE1B3"/>
<path d="M109.934 292.641V301.787H100.772V292.641" fill="#1D1D1B"/>
<path d="M36.6448 292.641V301.787H27.4867V292.641" fill="#1D1D1B"/>
<path d="M91.6098 292.641V301.787H82.4518V292.641" fill="#FEE1B3"/>
<path d="M82.4518 292.641V301.787H73.2895V292.641" fill="#FEE1B3"/>
<path d="M64.1315 292.645V301.787H54.9692V292.645" fill="#FEE1B3"/>
<path d="M73.2895 292.645V301.787H64.1315V292.645" fill="#FEE1B3"/>
<path d="M45.807 292.645V301.787H36.6448V292.645" fill="#EECEA7"/>
<path d="M54.9692 292.641V301.787H45.807V292.641" fill="#FEEDD9"/>
<path d="M100.772 292.641V301.787H91.6098V292.641" fill="#FEE1B3"/>
<path d="M100.772 274.352H91.6098V283.498H100.772V274.352Z" fill="#FEE1B3"/>
<path d="M100.772 265.206H91.6098V274.352H100.772V265.206Z" fill="#FEE1B3"/>
<path d="M82.4518 274.352H73.2895V283.498H82.4518V274.352Z" fill="#FEE1B3"/>
<path d="M64.1315 265.206H54.9692V274.352H64.1315V265.206Z" fill="#FEE1B3"/>
<path d="M73.2937 265.21H64.1315V274.352H73.2937V265.21Z" fill="#FEE1B3"/>
<path d="M64.1315 274.352H54.9692V283.498H64.1315V274.352Z" fill="#FEE1B3"/>
<path d="M73.2937 274.352H64.1315V283.498H73.2937V274.352Z" fill="#FEE1B3"/>
<path d="M45.807 265.206H36.6448V274.352H45.807V265.206Z" fill="#EECEA7"/>
<path d="M45.807 274.352H36.6448V283.498H45.807V274.352Z" fill="#EECEA7"/>
<path d="M54.9692 265.21H45.807V274.352H54.9692V265.21Z" fill="#FEEDD9"/>
<path d="M54.9692 274.352H45.807V283.498H54.9692V274.352Z" fill="#FEEDD9"/>
<path d="M82.4518 265.206H73.2895V274.352H82.4518V265.206Z" fill="#FEE1B3"/>
<path d="M109.934 137.178H100.772V146.325H109.934V137.178Z" fill="#EECEA7"/>
<path d="M100.772 137.178H91.6098V146.325H100.772V137.178Z" fill="#FDDAB0"/>
<path d="M119.097 137.178H109.934V146.325H119.097V137.178Z" fill="#FDDAB0"/>
<path d="M91.614 137.178H82.4518V146.325H91.614V137.178Z" fill="#FDDAB0"/>
<path d="M64.1315 137.178H54.9692V146.325H64.1315V137.178Z" fill="#FEE1B3"/>
<path d="M73.2937 137.178H64.1315V146.325H73.2937V137.178Z" fill="#FEE1B3"/>
<path d="M45.807 137.178H36.6448V146.325H45.807V137.178Z" fill="#E8C9A3"/>
<path d="M27.4867 137.178H18.3245V146.325H27.4867V137.178Z" fill="#FDDAB0"/>
<path d="M54.9692 137.178H45.807V146.325H54.9692V137.178Z" fill="#FDDAB0"/>
<path d="M82.4518 137.178H73.2895V146.325H82.4518V137.178Z" fill="#FDDAB0"/>
<path d="M128.259 118.89H119.097V128.036H128.259V118.89Z" fill="#1D1D1B"/>
<path d="M109.934 118.89H100.772V128.036H109.934V118.89Z" fill="#FDDAB0"/>
<path d="M100.772 118.89H91.6098V128.036H100.772V118.89Z" fill="#FDDAB0"/>
<path d="M119.097 118.89H109.934V128.036H119.097V118.89Z" fill="#FDDAB0"/>
<path d="M91.614 118.89H82.4518V128.036H91.614V118.89Z" fill="#FDDAB0"/>
<path d="M64.1315 118.89H54.9692V128.036H64.1315V118.89Z" fill="#E8C9A3"/>
<path d="M73.2937 118.89H64.1315V128.036H73.2937V118.89Z" fill="#FDDAB0"/>
<path d="M45.807 118.89H36.6448V128.036H45.807V118.89Z" fill="#FDDAB0"/>
<path d="M27.4867 118.89H18.3245V128.036H27.4867V118.89Z" fill="#FDDAB0"/>
<path d="M18.3245 128.036H9.16223V137.182H18.3245V128.036Z" fill="#FDDAB0"/>
<path d="M18.3245 146.324H9.16223V155.471H18.3245V146.324Z" fill="#FDDAB0"/>
<path d="M18.3245 155.471H9.16223V164.617H18.3245V155.471Z" fill="#1D1D1B"/>
<path d="M18.3245 137.178H9.16223V146.325H18.3245V137.178Z" fill="#FDDAB0"/>
<path d="M18.3245 118.89H9.16223V128.036H18.3245V118.89Z" fill="#FDDAB0"/>
<path d="M54.9692 118.89H45.807V128.036H54.9692V118.89Z" fill="#1D1D1B"/>
<path d="M82.4476 118.89H73.2895V128.036H82.4476V118.89Z" fill="#FDDAB0"/>
<path d="M36.6489 128.036H27.4867V137.182H36.6489V128.036Z" fill="#FEE1B3"/>
<path d="M36.6448 146.324H27.4867V155.471H36.6448V146.324Z" fill="#FDDAB0"/>
<path d="M36.6448 155.471H27.4867V164.617H36.6448V155.471Z" fill="#EECEA7"/>
<path d="M36.6448 137.178H27.4867V146.325H36.6448V137.178Z" fill="#1D1D1B"/>
<path d="M36.6448 118.89H27.4867V128.036H36.6448V118.89Z" fill="#FDDAB0"/>
<path d="M45.807 82.3086H36.6448V91.4549H45.807V82.3086Z" fill="#1D1D1B"/>
<path d="M27.4867 82.3086H18.3245V91.4549H27.4867V82.3086Z" fill="#FDDAB0"/>
<path d="M64.1315 82.3086H54.9692V91.4549H64.1315V82.3086Z" fill="#F8D5AD"/>
<path d="M73.2937 82.3086H64.1315V91.4549H73.2937V82.3086Z" fill="#1D1D1B"/>
<path d="M54.9692 82.3086H45.807V91.4549H54.9692V82.3086Z" fill="#FDDAB0"/>
<path d="M82.4518 82.3086H73.2895V91.4549H82.4518V82.3086Z" fill="#FDDAB0"/>
<path d="M109.934 82.3086H100.772V91.4549H109.934V82.3086Z" fill="#FDDAB0"/>
<path d="M100.772 82.3086H91.6098V91.4549H100.772V82.3086Z" fill="#1D1D1B"/>
<path d="M128.259 82.3086H119.097V91.4549H128.259V82.3086Z" fill="#1D1D1B"/>
<path d="M119.097 82.3086H109.934V91.4549H119.097V82.3086Z" fill="#F8D5AD"/>
<path d="M91.614 82.3086H82.4518V91.4549H91.614V82.3086Z" fill="#F8D5AD"/>
<path d="M128.259 100.597H119.097V109.743H128.259V100.597Z" fill="#1D1D1B"/>
<path d="M128.259 109.743H119.097V118.885H128.259V109.743Z" fill="#1D1D1B"/>
<path d="M109.934 100.597H100.772V109.743H109.934V100.597Z" fill="#F8D5AD"/>
<path d="M100.772 100.597H91.6098V109.743H100.772V100.597Z" fill="#E8C9A3"/>
<path d="M109.934 109.743H100.772V118.885H109.934V109.743Z" fill="#FDDAB0"/>
<path d="M100.772 109.743H91.6098V118.885H100.772V109.743Z" fill="#FDDAB0"/>
<path d="M119.097 100.597H109.934V109.743H119.097V100.597Z" fill="#F8D5AD"/>
<path d="M91.614 109.743H82.4518V118.889H91.614V109.743Z" fill="#FDDAB0"/>
<path d="M119.097 109.743H109.934V118.889H119.097V109.743Z" fill="#FDDAB0"/>
<path d="M91.614 100.597H82.4518V109.743H91.614V100.597Z" fill="#E8C9A3"/>
<path d="M82.4476 109.743H73.2895V118.889H82.4476V109.743Z" fill="#FDDAB0"/>
<path d="M64.1315 100.597H54.9692V109.743H64.1315V100.597Z" fill="#E0C39E"/>
<path d="M73.2937 100.597H64.1315V109.743H73.2937V100.597Z" fill="#E0C39E"/>
<path d="M64.1315 109.743H54.9692V118.885H64.1315V109.743Z" fill="#E0C39E"/>
<path d="M73.2937 109.743H64.1315V118.885H73.2937V109.743Z" fill="#FDDAB0"/>
<path d="M45.807 100.597H36.6448V109.743H45.807V100.597Z" fill="#FEEDDB"/>
<path d="M27.4867 100.597H18.3245V109.743H27.4867V100.597Z" fill="#1D1D1B"/>
<path d="M45.807 109.743H36.6448V118.885H45.807V109.743Z" fill="#FDDAB0"/>
<path d="M27.4867 109.743H18.3245V118.885H27.4867V109.743Z" fill="#FDDAB0"/>
<path d="M54.9692 100.597H45.807V109.743H54.9692V100.597Z" fill="#1D1D1B"/>
<path d="M54.9692 109.743H45.807V118.889H54.9692V109.743Z" fill="#1D1D1B"/>
<path d="M82.4476 100.597H73.2895V109.743H82.4476V100.597Z" fill="#E0C39E"/>
<path d="M128.259 91.4551H119.097V100.597H128.259V91.4551Z" fill="#1D1D1B"/>
<path d="M109.934 91.4551H100.772V100.597H109.934V91.4551Z" fill="#F8D5AD"/>
<path d="M100.772 91.4551H91.6098V100.597H100.772V91.4551Z" fill="#E8C9A3"/>
<path d="M119.097 91.4551H109.934V100.597H119.097V91.4551Z" fill="#F8D5AD"/>
<path d="M91.614 91.4551H82.4518V100.597H91.614V91.4551Z" fill="#1D1D1B"/>
<path d="M64.1315 91.4551H54.9692V100.597H64.1315V91.4551Z" fill="#1D1D1B"/>
<path d="M73.2937 91.4551H64.1315V100.597H73.2937V91.4551Z" fill="#1D1D1B"/>
<path d="M45.807 91.4551H36.6448V100.597H45.807V91.4551Z" fill="#1D1D1B"/>
<path d="M27.4867 91.4551H18.3245V100.597H27.4867V91.4551Z" fill="#FDDAB0"/>
<path d="M54.9692 91.4551H45.807V100.597H54.9692V91.4551Z" fill="#1D1D1B"/>
<path d="M82.4476 91.4551H73.2895V100.597H82.4476V91.4551Z" fill="#1D1D1B"/>
<path d="M128.259 73.1621H119.097V82.3084H128.259V73.1621Z" fill="#1D1D1B"/>
<path d="M109.934 73.1621H100.772V82.3084H109.934V73.1621Z" fill="#FDDAB0"/>
<path d="M100.772 73.1621H91.6098V82.3084H100.772V73.1621Z" fill="#1D1D1B"/>
<path d="M119.097 73.1665H109.934V82.3128H119.097V73.1665Z" fill="#F8D5AD"/>
<path d="M91.614 73.1621H82.4518V82.3084H91.614V73.1621Z" fill="#F8D5AD"/>
<path d="M64.1315 73.1621H54.9692V82.3084H64.1315V73.1621Z" fill="#F8D5AD"/>
<path d="M73.2937 73.1665H64.1315V82.3128H73.2937V73.1665Z" fill="#1D1D1B"/>
<path d="M45.807 73.1621H36.6448V82.3084H45.807V73.1621Z" fill="#1D1D1B"/>
<path d="M27.4867 73.1621H18.3245V82.3084H27.4867V73.1621Z" fill="#FDDAB0"/>
<path d="M18.3245 82.3086H9.16223V91.4549H18.3245V82.3086Z" fill="#1D1D1B"/>
<path d="M18.3245 100.597H9.16223V109.743H18.3245V100.597Z" fill="#1D1D1B"/>
<path d="M18.3245 109.743H9.16223V118.885H18.3245V109.743Z" fill="#1D1D1B"/>
<path d="M18.3245 91.4551H9.16223V100.597H18.3245V91.4551Z" fill="#1D1D1B"/>
<path d="M18.3245 73.1621H9.16223V82.3084H18.3245V73.1621Z" fill="#1D1D1B"/>
<path d="M54.9692 73.1665H45.807V82.3128H54.9692V73.1665Z" fill="#FDDAB0"/>
<path d="M82.4476 73.1621H73.2895V82.3084H82.4476V73.1621Z" fill="#FDDAB0"/>
<path d="M36.6489 82.3086H27.4867V91.4549H36.6489V82.3086Z" fill="#F8D5AD"/>
<path d="M36.6448 100.597H27.4867V109.743H36.6448V100.597Z" fill="#FEEDDB"/>
<path d="M36.6448 109.743H27.4867V118.885H36.6448V109.743Z" fill="#FEEDDB"/>
<path d="M36.6448 91.4551H27.4867V100.597H36.6448V91.4551Z" fill="#1D1D1B"/>
<path d="M9.16224 128.036H0V137.182H9.16224V128.036Z" fill="#1D1D1B"/>
<path d="M9.16224 146.324H0V155.471H9.16224V146.324Z" fill="#1D1D1B"/>
<path d="M9.16224 137.178H0V146.325H9.16224V137.178Z" fill="#1D1D1B"/>
<path d="M9.16224 118.89H0V128.036H9.16224V118.89Z" fill="#1D1D1B"/>
<path d="M36.6448 73.1621H27.4867V82.3084H36.6448V73.1621Z" fill="#F8D5AD"/>
<path d="M128.259 54.8735H119.097V64.0199H128.259V54.8735Z" fill="#1D1D1B"/>
<path d="M128.259 64.02H119.097V73.1622H128.259V64.02Z" fill="#1D1D1B"/>
<path d="M109.934 54.8735H100.772V64.0199H109.934V54.8735Z" fill="#FDDAB0"/>
<path d="M100.772 54.8735H91.6098V64.0199H100.772V54.8735Z" fill="#1D1D1B"/>
<path d="M109.934 64.02H100.772V73.1622H109.934V64.02Z" fill="#FDDAB0"/>
<path d="M100.772 64.02H91.6098V73.1622H100.772V64.02Z" fill="#1D1D1B"/>
<path d="M119.097 54.8735H109.934V64.0199H119.097V54.8735Z" fill="#F8D5AD"/>
<path d="M91.614 64.02H82.4518V73.1663H91.614V64.02Z" fill="#F8D5AD"/>
<path d="M119.097 64.02H109.934V73.1663H119.097V64.02Z" fill="#F8D5AD"/>
<path d="M91.614 54.8735H82.4518V64.0199H91.614V54.8735Z" fill="#F8D5AD"/>
<path d="M82.4476 64.02H73.2895V73.1663H82.4476V64.02Z" fill="#FDDAB0"/>
<path d="M64.1315 54.8735H54.9692V64.0199H64.1315V54.8735Z" fill="#F8D5AD"/>
<path d="M73.2937 54.8735H64.1315V64.0199H73.2937V54.8735Z" fill="#1D1D1B"/>
<path d="M64.1315 64.02H54.9692V73.1622H64.1315V64.02Z" fill="#F8D5AD"/>
<path d="M73.2937 64.02H64.1315V73.1622H73.2937V64.02Z" fill="#1D1D1B"/>
<path d="M45.807 54.8735H36.6448V64.0199H45.807V54.8735Z" fill="#1D1D1B"/>
<path d="M27.4867 54.8735H18.3245V64.0199H27.4867V54.8735Z" fill="#FDDAB0"/>
<path d="M45.807 64.02H36.6448V73.1622H45.807V64.02Z" fill="#1D1D1B"/>
<path d="M27.4867 64.02H18.3245V73.1622H27.4867V64.02Z" fill="#FDDAB0"/>
<path d="M54.9692 54.8735H45.807V64.0199H54.9692V54.8735Z" fill="#FDDAB0"/>
<path d="M54.9692 64.02H45.807V73.1663H54.9692V64.02Z" fill="#FDDAB0"/>
<path d="M82.4476 54.8735H73.2895V64.0199H82.4476V54.8735Z" fill="#FDDAB0"/>
<path d="M91.614 45.7275H82.4518V54.8697H91.614V45.7275Z" fill="#1D1D1B"/>
<path d="M64.1315 45.7275H54.9692V54.8697H64.1315V45.7275Z" fill="#1D1D1B"/>
<path d="M54.9692 45.7275H45.807V54.8697H54.9692V45.7275Z" fill="#1D1D1B"/>
<path d="M82.4476 45.7275H73.2895V54.8697H82.4476V45.7275Z" fill="#1D1D1B"/>
<path d="M18.3245 54.8735H9.16223V64.0199H18.3245V54.8735Z" fill="#1D1D1B"/>
<path d="M18.3245 64.02H9.16223V73.1622H18.3245V64.02Z" fill="#1D1D1B"/>
<path d="M36.6448 54.8735H27.4867V64.0199H36.6448V54.8735Z" fill="#F8D5AD"/>
<path d="M36.6448 64.02H27.4867V73.1622H36.6448V64.02Z" fill="#F8D5AD"/>
<path d="M45.807 45.7275H36.6448V54.8739H45.807V45.7275Z" fill="#1D1D1B"/>
<path d="M27.4867 45.7275H18.3245V54.8739H27.4867V45.7275Z" fill="#FDDAB0"/>
<path d="M109.934 45.7275H100.772V54.8739H109.934V45.7275Z" fill="#FDDAB0"/>
<path d="M100.772 45.7275H91.6098V54.8739H100.772V45.7275Z" fill="#1D1D1B"/>
<path d="M128.259 45.7275H119.097V54.8739H128.259V45.7275Z" fill="#1D1D1B"/>
<path d="M119.097 45.7275H109.934V54.8739H119.097V45.7275Z" fill="#F8D5AD"/>
<path d="M128.259 27.4346H119.097V36.5809H128.259V27.4346Z" fill="#1D1D1B"/>
<path d="M109.934 27.4346H100.772V36.5809H109.934V27.4346Z" fill="#FDDAB0"/>
<path d="M100.772 27.4346H91.6098V36.5809H100.772V27.4346Z" fill="#1D1D1B"/>
<path d="M119.097 27.439H109.934V36.5853H119.097V27.439Z" fill="#F8D5AD"/>
<path d="M45.807 27.4346H36.6448V36.5809H45.807V27.4346Z" fill="#1D1D1B"/>
<path d="M27.4867 27.4346H18.3245V36.5809H27.4867V27.4346Z" fill="#FDDAB0"/>
<path d="M18.3245 45.7275H9.16223V54.8739H18.3245V45.7275Z" fill="#1D1D1B"/>
<path d="M18.3245 27.4346H9.16223V36.5809H18.3245V27.4346Z" fill="#1D1D1B"/>
<path d="M36.6489 45.7275H27.4867V54.8739H36.6489V45.7275Z" fill="#F8D5AD"/>
<path d="M36.6448 27.4346H27.4867V36.5809H36.6448V27.4346Z" fill="#F8D5AD"/>
<path d="M128.259 36.5811H119.097V45.7274H128.259V36.5811Z" fill="#1D1D1B"/>
<path d="M109.934 36.5811H100.772V45.7274H109.934V36.5811Z" fill="#FDDAB0"/>
<path d="M100.772 36.5811H91.6098V45.7274H100.772V36.5811Z" fill="#1D1D1B"/>
<path d="M119.097 36.5854H109.934V45.7318H119.097V36.5854Z" fill="#F8D5AD"/>
<path d="M45.807 36.5811H36.6448V45.7274H45.807V36.5811Z" fill="#1D1D1B"/>
<path d="M27.4867 36.5811H18.3245V45.7274H27.4867V36.5811Z" fill="#FDDAB0"/>
<path d="M18.3245 36.5811H9.16223V45.7274H18.3245V36.5811Z" fill="#1D1D1B"/>
<path d="M36.6448 36.5811H27.4867V45.7274H36.6448V36.5811Z" fill="#F8D5AD"/>
<path d="M128.259 9.14648H119.097V18.2928H128.259V9.14648Z" fill="#1D1D1B"/>
<path d="M128.259 18.2925H119.097V27.4346H128.259V18.2925Z" fill="#1D1D1B"/>
<path d="M109.934 9.14648H100.772V18.2928H109.934V9.14648Z" fill="#FDDAB0"/>
<path d="M100.772 9.14648H91.6098V18.2928H100.772V9.14648Z" fill="#1D1D1B"/>
<path d="M109.934 18.2925H100.772V27.4346H109.934V18.2925Z" fill="#FDDAB0"/>
<path d="M100.772 18.2925H91.6098V27.4346H100.772V18.2925Z" fill="#1D1D1B"/>
<path d="M119.097 9.14648H109.934V18.2928H119.097V9.14648Z" fill="#F8D5AD"/>
<path d="M119.097 18.2925H109.934V27.4388H119.097V18.2925Z" fill="#F8D5AD"/>
<path d="M45.807 9.14648H36.6448V18.2928H45.807V9.14648Z" fill="#1D1D1B"/>
<path d="M27.4867 9.14648H18.3245V18.2928H27.4867V9.14648Z" fill="#FDDAB0"/>
<path d="M45.807 18.2925H36.6448V27.4346H45.807V18.2925Z" fill="#1D1D1B"/>
<path d="M27.4867 18.2925H18.3245V27.4346H27.4867V18.2925Z" fill="#FDDAB0"/>
<path d="M18.3245 9.14648H9.16223V18.2928H18.3245V9.14648Z" fill="#1D1D1B"/>
<path d="M18.3245 18.2925H9.16223V27.4346H18.3245V18.2925Z" fill="#1D1D1B"/>
<path d="M36.6448 9.14648H27.4867V18.2928H36.6448V9.14648Z" fill="#F8D5AD"/>
<path d="M109.934 0H100.772V9.14632H109.934V0Z" fill="#1D1D1B"/>
<path d="M119.097 0H109.934V9.14632H119.097V0Z" fill="#1D1D1B"/>
<path d="M27.4867 0H18.3245V9.14632H27.4867V0Z" fill="#1D1D1B"/>
<path d="M36.6448 0H27.4867V9.14632H36.6448V0Z" fill="#1D1D1B"/>
<path d="M36.6448 18.2925H27.4867V27.4346H36.6448V18.2925Z" fill="#F8D5AD"/>
<path d="M119.097 118.89H109.934V128.036H119.097V118.89Z" fill="#FDDAB0"/>
<path d="M119.097 109.743H109.934V118.885H119.097V109.743Z" fill="#FDDAB0"/>
<path d="M128.259 109.743H119.097V118.889H128.259V109.743Z" fill="#1D1D1B"/>
<path d="M119.097 128.032H109.934V137.178H119.097V128.032Z" fill="#EECEA7"/>
<path d="M128.259 128.032H119.097V137.178H128.259V128.032Z" fill="#1D1D1B"/>
<path d="M128.259 118.89H119.097V128.036H128.259V118.89Z" fill="#1D1D1B"/>
<path d="M119.097 137.178H109.934V146.325H119.097V137.178Z" fill="#EECEA7"/>
<path d="M119.097 146.324H109.934V155.471H119.097V146.324Z" fill="#EECEA7"/>
<path d="M128.259 146.324H119.097V155.466H128.259V146.324Z" fill="#FDDAB0"/>
<path d="M128.259 137.178H119.097V146.325H128.259V137.178Z" fill="#FDDAB0"/>
<path d="M128.259 137.178H119.097V146.325H128.259V137.178Z" fill="#1D1D1B"/>
<path d="M128.259 146.324H119.097V155.471H128.259V146.324Z" fill="#1D1D1B"/>
<path d="M119.097 155.471H109.934V164.617H119.097V155.471Z" fill="#EECEA7"/>
<path d="M128.259 155.471H119.097V164.617H128.259V155.471Z" fill="#FDDAB0"/>
<path d="M128.259 155.471H119.097V164.617H128.259V155.471Z" fill="#1D1D1B"/>
<path d="M109.934 164.613H100.772V173.759H109.934V164.613Z" fill="#EECEA7"/>
<path d="M100.772 164.613H91.6098V173.759H100.772V164.613Z" fill="#EECEA7"/>
<path d="M91.614 164.613H82.4518V173.759H91.614V164.613Z" fill="#EECEA7"/>
<path d="M119.097 164.613H109.934V173.759H119.097V164.613Z" fill="#FDDAB0"/>
<path d="M82.4518 164.613H73.2895V173.759H82.4518V164.613Z" fill="#EECEA7"/>
<path d="M64.1315 164.613H54.9692V173.759H64.1315V164.613Z" fill="#EECEA7"/>
<path d="M73.2937 164.613H64.1315V173.759H73.2937V164.613Z" fill="#EECEA7"/>
<path d="M45.807 164.613H36.6448V173.759H45.807V164.613Z" fill="#EECEA7"/>
<path d="M27.4867 164.613H18.3245V173.759H27.4867V164.613Z" fill="#EECEA7"/>
<path d="M54.9692 164.613H45.807V173.759H54.9692V164.613Z" fill="#EECEA7"/>
<path d="M18.3245 164.613H9.16223V173.759H18.3245V164.613Z" fill="#1D1D1B"/>
<path d="M36.6448 164.613H27.4867V173.759H36.6448V164.613Z" fill="#EECEA7"/>
<path d="M119.097 164.613H109.934V173.759H119.097V164.613Z" fill="#1D1D1B"/>
</g>
<defs>
<clipPath id="clip0_230_3">
<rect width="142" height="305" fill="white"/>
</clipPath>
</defs>
</svg>
