<svg width="252" height="62" viewBox="0 0 252 62" fill="none" xmlns="http://www.w3.org/2000/svg">
<rect x="5" y="5" width="242" height="52" fill="#FF5C00"/>
<rect x="7.5" y="7.5" width="237" height="47" stroke="white" stroke-opacity="0.21" stroke-width="5"/>
<path d="M252 10H247V52H252V10Z" fill="black"/>
<path d="M247 52H242V57H247V52Z" fill="black"/>
<path d="M247 5H242V10H247V5Z" fill="black"/>
<path d="M242 57H237V62H242V57Z" fill="black"/>
<path d="M242 0H237V5H242V0Z" fill="black"/>
<path d="M237 0H10V5H237V0Z" fill="black"/>
<path d="M237 57H10V62H237V57Z" fill="black"/>
<path d="M10 52H5V57H10V52Z" fill="black"/>
<path d="M10 5H5V10H10V5Z" fill="black"/>
<path d="M5 10H0V52H5V10Z" fill="black"/>
<path d="M26 17H34V25H38V29H42V25H46V17H54V45H46V33H34V45H26V17ZM62 21H70V33H74V21H82V33H78V41H74V45H62V41H70V37H66V33H62V21ZM106 17H114V21H118V25H122V17H130V45H122V33H118V29H114V45H106V17ZM138 17H162V21H146V29H158V33H146V45H138V17ZM170 17H194V21H186V45H178V21H170V17ZM206 21H222V25H210V29H222V33H226V41H222V45H206V41H202V37H210V41H218V33H206V29H202V25H206V21Z" fill="white"/>
</svg>
