<svg width="246" height="83" viewBox="0 0 246 83" fill="none" xmlns="http://www.w3.org/2000/svg">
<rect x="7.5" y="7.5" width="226" height="57" fill="white" stroke="white" stroke-width="5"/>
<rect x="10" y="10" width="231" height="52" fill="#FFE501"/>
<g clip-path="url(#clip0_227_11369)">
<path d="M246 51.8765H240.874V57.063H246V51.8765Z" fill="black"/>
<path d="M246 46.6899H240.874V51.8765H246V46.6899Z" fill="black"/>
<path d="M246 41.501H240.874V46.6875H246V41.501Z" fill="black"/>
<path d="M246 36.3145H240.874V41.501H246V36.3145Z" fill="black"/>
<path d="M246 31.126H240.874V36.3125H246V31.126Z" fill="black"/>
<path d="M246 25.9395H240.874V31.126H246V25.9395Z" fill="black"/>
<path d="M246 20.7505H240.874V25.937H246V20.7505Z" fill="black"/>
<path d="M246 15.564H240.874V20.7505H246V15.564Z" fill="black"/>
<path d="M246 10.3755H240.874V15.562H246V10.3755Z" fill="black"/>
<path d="M240.864 57.0649H235.74V62.2515H240.864V57.0649Z" fill="black"/>
<path d="M240.864 5.18896H235.74V10.3755H240.864V5.18896Z" fill="black"/>
<path d="M235.742 62.2515H230.617V67.438H235.742V62.2515Z" fill="black"/>
<path d="M235.742 0H230.617V5.18653H235.742V0Z" fill="black"/>
<path d="M230.615 62.2515H225.491V67.438H230.615V62.2515Z" fill="black"/>
<path d="M230.615 0H225.491V5.18653H230.615V0Z" fill="black"/>
<path d="M225.493 62.2515H220.368V67.438H225.493V62.2515Z" fill="black"/>
<path d="M225.493 0H220.368V5.18653H225.493V0Z" fill="black"/>
<path d="M220.368 62.2515H215.244V67.438H220.368V62.2515Z" fill="black"/>
<path d="M220.368 0H215.244V5.18653H220.368V0Z" fill="black"/>
<path d="M215.244 62.2515H210.119V67.438H215.244V62.2515Z" fill="black"/>
<path d="M215.244 0H210.119V5.18653H215.244V0Z" fill="black"/>
<path d="M210.112 62.2515H204.989V67.438H210.112V62.2515Z" fill="black"/>
<path d="M210.112 0H204.989V5.18653H210.112V0Z" fill="black"/>
<path d="M204.989 62.2515H199.863V67.438H204.989V62.2515Z" fill="black"/>
<path d="M204.989 0H199.863V5.18653H204.989V0Z" fill="black"/>
<path d="M199.863 62.2515H194.74V67.438H199.863V62.2515Z" fill="black"/>
<path d="M199.863 0H194.74V5.18653H199.863V0Z" fill="black"/>
<path d="M194.742 62.2515H189.616V67.438H194.742V62.2515Z" fill="black"/>
<path d="M194.742 0H189.616V5.18653H194.742V0Z" fill="black"/>
<path d="M189.614 62.2515H184.491V67.438H189.614V62.2515Z" fill="black"/>
<path d="M189.614 0H184.491V5.18653H189.614V0Z" fill="black"/>
<path d="M184.493 62.2515H179.367V67.438H184.493V62.2515Z" fill="black"/>
<path d="M184.493 0H179.367V5.18653H184.493V0Z" fill="black"/>
<path d="M179.365 62.2515H174.242V67.438H179.365V62.2515Z" fill="black"/>
<path d="M179.365 0H174.242V5.18653H179.365V0Z" fill="black"/>
<path d="M174.244 62.2515H169.118V67.438H174.244V62.2515Z" fill="black"/>
<path d="M174.244 0H169.118V5.18653H174.244V0Z" fill="black"/>
<path d="M169.116 62.2515H163.993V67.438H169.116V62.2515Z" fill="black"/>
<path d="M169.116 0H163.993V5.18653H169.116V0Z" fill="black"/>
<path d="M163.995 62.2515H158.869V67.438H163.995V62.2515Z" fill="black"/>
<path d="M163.995 0H158.869V5.18653H163.995V0Z" fill="black"/>
<path d="M158.867 67.4404H153.744V72.627H158.867V67.4404Z" fill="black"/>
<path d="M158.867 0H153.744V5.18653H158.867V0Z" fill="black"/>
<path d="M153.746 72.627H148.62V77.8135H153.746V72.627Z" fill="black"/>
<path d="M153.746 0H148.62V5.18653H153.746V0Z" fill="black"/>
<path d="M148.618 77.8159H143.495V83.0024H148.618V77.8159Z" fill="black"/>
<path d="M148.618 72.627H143.495V77.8135H148.618V72.627Z" fill="black"/>
<path d="M148.618 67.4404H143.495V72.627H148.618V67.4404Z" fill="black"/>
<path d="M148.618 62.2515H143.495V67.438H148.618V62.2515Z" fill="black"/>
<path d="M148.618 0H143.495V5.18653H148.618V0Z" fill="black"/>
<path d="M143.497 62.2515H138.371V67.438H143.497V62.2515Z" fill="black"/>
<path d="M143.497 0H138.371V5.18653H143.497V0Z" fill="black"/>
<path d="M138.369 62.2515H133.246V67.438H138.369V62.2515Z" fill="black"/>
<path d="M138.369 0H133.246V5.18653H138.369V0Z" fill="black"/>
<path d="M133.248 62.2515H128.122V67.438H133.248V62.2515Z" fill="black"/>
<path d="M133.248 0H128.122V5.18653H133.248V0Z" fill="black"/>
<path d="M128.12 62.2515H122.997V67.438H128.12V62.2515Z" fill="black"/>
<path d="M128.12 0H122.997V5.18653H128.12V0Z" fill="black"/>
<path d="M122.999 62.2515H117.873V67.438H122.999V62.2515Z" fill="black"/>
<path d="M122.999 0H117.873V5.18653H122.999V0Z" fill="black"/>
<path d="M117.871 62.2515H112.748V67.438H117.871V62.2515Z" fill="black"/>
<path d="M117.871 0H112.748V5.18653H117.871V0Z" fill="black"/>
<path d="M112.75 62.2515H107.624V67.438H112.75V62.2515Z" fill="black"/>
<path d="M112.75 0H107.624V5.18653H112.75V0Z" fill="black"/>
<path d="M107.622 62.2515H102.499V67.438H107.622V62.2515Z" fill="black"/>
<path d="M107.622 0H102.499V5.18653H107.622V0Z" fill="black"/>
<path d="M102.501 62.2515H97.3752V67.438H102.501V62.2515Z" fill="black"/>
<path d="M102.501 0H97.3752V5.18653H102.501V0Z" fill="black"/>
<path d="M97.3732 62.2515H92.2498V67.438H97.3732V62.2515Z" fill="black"/>
<path d="M97.3732 0H92.2498V5.18653H97.3732V0Z" fill="black"/>
<path d="M92.2518 62.2515H87.1262V67.438H92.2518V62.2515Z" fill="black"/>
<path d="M92.2518 0H87.1262V5.18653H92.2518V0Z" fill="black"/>
<path d="M87.1241 62.2515H82.0007V67.438H87.1241V62.2515Z" fill="black"/>
<path d="M87.1241 0H82.0007V5.18653H87.1241V0Z" fill="black"/>
<path d="M82.003 62.2515H76.8774V67.438H82.003V62.2515Z" fill="black"/>
<path d="M82.003 0H76.8774V5.18653H82.003V0Z" fill="black"/>
<path d="M76.8773 62.2515H71.7539V67.438H76.8773V62.2515Z" fill="black"/>
<path d="M76.8773 0H71.7539V5.18653H76.8773V0Z" fill="black"/>
<path d="M71.754 62.2515H66.6284V67.438H71.754V62.2515Z" fill="black"/>
<path d="M71.754 0H66.6284V5.18653H71.754V0Z" fill="black"/>
<path d="M66.6283 62.2515H61.5049V67.438H66.6283V62.2515Z" fill="black"/>
<path d="M66.6283 0H61.5049V5.18653H66.6283V0Z" fill="black"/>
<path d="M61.505 62.2515H56.3794V67.438H61.505V62.2515Z" fill="black"/>
<path d="M61.505 0H56.3794V5.18653H61.505V0Z" fill="black"/>
<path d="M56.3793 62.2515H51.2559V67.438H56.3793V62.2515Z" fill="black"/>
<path d="M56.3793 0H51.2559V5.18653H56.3793V0Z" fill="black"/>
<path d="M51.256 62.2515H46.1304V67.438H51.256V62.2515Z" fill="black"/>
<path d="M51.256 0H46.1304V5.18653H51.256V0Z" fill="black"/>
<path d="M46.1302 62.2515H41.0068V67.438H46.1302V62.2515Z" fill="black"/>
<path d="M46.1302 0H41.0068V5.18653H46.1302V0Z" fill="black"/>
<path d="M41.0069 62.2515H35.8813V67.438H41.0069V62.2515Z" fill="black"/>
<path d="M41.0069 0H35.8813V5.18653H41.0069V0Z" fill="black"/>
<path d="M35.8812 62.2515H30.7578V67.438H35.8812V62.2515Z" fill="black"/>
<path d="M35.8812 0H30.7578V5.18653H35.8812V0Z" fill="black"/>
<path d="M30.7579 62.2515H25.6323V67.438H30.7579V62.2515Z" fill="black"/>
<path d="M30.7579 0H25.6323V5.18653H30.7579V0Z" fill="black"/>
<path d="M25.6324 62.2515H20.509V67.438H25.6324V62.2515Z" fill="black"/>
<path d="M25.6324 0H20.509V5.18653H25.6324V0Z" fill="black"/>
<path d="M20.5089 62.2515H15.3833V67.438H20.5089V62.2515Z" fill="black"/>
<path d="M20.5089 0H15.3833V5.18653H20.5089V0Z" fill="black"/>
<path d="M15.3834 62.2515H10.26V67.438H15.3834V62.2515Z" fill="black"/>
<path d="M15.3834 0H10.26V5.18653H15.3834V0Z" fill="black"/>
<path d="M10.2599 57.0649H5.13428V62.2515H10.2599V57.0649Z" fill="black"/>
<path d="M10 5H5V10H10V5Z" fill="black"/>
<path d="M5 10H0V57H5V10Z" fill="black"/>
<rect x="149" y="62" width="10" height="5" fill="#FFE501"/>
<rect x="149" y="67" width="5" height="5" fill="#FFE501"/>
</g>
<path d="M25.125 27.75H28.625V29.5H30.375V31.25H32.125V27.75H35.625V40H32.125V34.75H30.375V33H28.625V40H25.125V27.75ZM39.125 27.75H49.625V29.5H42.625V33H47.875V34.75H42.625V40H39.125V27.75ZM53.125 27.75H63.625V29.5H60.125V40H56.625V29.5H53.125V27.75ZM75.875 27.75H82.875V29.5H84.625V31.25H81.125V29.5H77.625V33H82.875V34.75H84.625V38.25H82.875V40H75.875V38.25H74.125V36.5H77.625V38.25H81.125V34.75H75.875V33H74.125V29.5H75.875V27.75ZM88.125 29.5H91.625V38.25H95.125V40H89.875V38.25H88.125V29.5ZM100.375 29.5H107.375V31.25H109.125V38.25H107.375V40H100.375V38.25H98.625V31.25H100.375V29.5ZM102.125 31.25V38.25H105.625V31.25H102.125ZM112.625 27.75H116.125V31.25H121.375V33H116.125V38.25H121.375V40H114.375V38.25H112.625V27.75ZM133.625 29.5H140.625V31.25H142.375V33H138.875V31.25H135.375V38.25H142.375V40H133.625V38.25H131.875V31.25H133.625V29.5ZM147.625 29.5H154.625V31.25H151.125V33H149.375V40H145.875V31.25H147.625V29.5ZM159.875 29.5H166.875V31.25H168.625V34.75H161.625V38.25H168.625V40H159.875V38.25H158.125V31.25H159.875V29.5ZM161.625 31.25V33H165.125V31.25H161.625ZM173.875 29.5H180.875V31.25H182.625V40H173.875V38.25H172.125V34.75H173.875V33H179.125V31.25H173.875V29.5ZM175.625 34.75V38.25H179.125V34.75H175.625ZM186.125 27.75H189.625V31.25H194.875V33H189.625V38.25H194.875V40H187.875V38.25H186.125V27.75ZM200.125 29.5H207.125V31.25H208.875V34.75H201.875V38.25H208.875V40H200.125V38.25H198.375V31.25H200.125V29.5ZM201.875 31.25V33H205.375V31.25H201.875ZM219.375 27.75H222.875V40H214.125V38.25H212.375V33H214.125V31.25H219.375V27.75ZM215.875 33V38.25H219.375V33H215.875Z" fill="black"/>
<defs>
<clipPath id="clip0_227_11369">
<rect width="246" height="83" fill="white"/>
</clipPath>
</defs>
</svg>
