<svg width="498" height="46" viewBox="0 0 498 46" fill="none" xmlns="http://www.w3.org/2000/svg">
<path d="M407.454 0V40.8876H412.484V45.998H452.727V30.6653H447.697V20.4438H452.727V5.11111H447.697V0H407.454Z" fill="#1A1F2D"/>
<path d="M266.604 0H226.363V40.8856H231.393V45.998H271.636V30.6653H266.604V20.4438H271.636V5.11111H266.604V0Z" fill="#1A1F2D"/>
<path d="M85.5153 0H45.2725V40.8856H50.3023V45.998H70.4238V35.7751H85.5147V20.4424H90.5445V5.10978H85.5153V0Z" fill="#1A1F2D"/>
<path d="M316.909 0V15.3327H326.969V25.5542H316.909V40.8869H321.939V45.998H362.182V30.6653H357.15V25.5542H347.09V20.4438H362.181V5.11111H357.149V0H316.909Z" fill="#1A1F2D"/>
<path d="M181.091 0V40.8876H186.121V45.998H226.364V5.11044H221.334V0H181.091Z" fill="#1A1F2D"/>
<path d="M311.88 0H296.789V5.11045H291.756V0H271.637V40.8856H276.665V45.998H291.756V40.8856H296.785V45.998H316.907V5.11045H311.877L311.88 0Z" fill="#1A1F2D"/>
<path d="M35.2123 0H25.1526V5.11311H20.1221V0H0V40.8902H5.02987V46.0007H20.1208V40.8902H25.1506V46.0007H45.2727V5.11311H40.2448V0H35.2123Z" fill="#1A1F2D"/>
<path d="M176.061 5.11045H171.027V0H140.846V5.11045H135.818V35.7758H140.846V40.8862H145.878V45.9987H176.06V40.8856H181.09V10.2202H176.06L176.061 5.11045Z" fill="#1A1F2D"/>
<path d="M482.908 0H452.727V40.8876H457.756V45.998H497.999V10.2209H492.967V5.11044H487.94V0H482.908Z" fill="#1A1F2D"/>
<path d="M90.5459 0V15.3327H95.5758V20.4451H100.606V40.8876H105.635V45.998H125.757V20.4438H135.819V5.11111H130.789V0H90.5459Z" fill="#1A1F2D"/>
<path d="M362.182 0V15.3327H367.213V20.4444H362.182V40.8836H367.213V45.9933H407.454V30.6653H402.42V25.5516H407.454V5.10978H402.42V0H362.182Z" fill="#1A1F2D"/>
<path d="M412.516 30.8372V5.13965H442.866V10.2788H422.629V15.4179H437.805V25.6981H422.629V30.8372H442.863V35.9763H412.516V30.8372Z" fill="#6E7889"/>
<path d="M231.421 30.8372V5.13965H261.771V10.2821H241.536V15.4152H256.713V25.6981H241.536V30.8372H261.771V35.9763H231.421V30.8372Z" fill="#6E7889"/>
<path d="M50.3311 30.8372V5.13965H80.6815V10.2821H60.4498V15.4152H75.626V25.6981H60.4498V35.9763H50.3311V30.8372Z" fill="#EAD000"/>
<path d="M342.2 10.2788V30.8372H352.316V35.9763H321.966V30.8372H332.083V10.2788H321.966V5.13965H352.316V10.2788H342.2Z" fill="#6E7889"/>
<path d="M186.149 30.8372V5.13965H196.268V20.559H206.386V5.13965H216.502V20.559H211.444V25.6981H216.502V35.9763H206.384V25.6981H196.268V35.9763H186.149V30.8372Z" fill="#6E7889"/>
<path d="M291.87 30.8372V25.6981H286.811V20.559H281.753V35.9763H276.693V5.13965H286.811V10.2821H291.87V15.4152H296.928V20.5563H301.986V5.13965H307.046V35.9763H296.928V30.8372H291.87Z" fill="#6E7889"/>
<path d="M20.2338 30.8372V25.6981H15.1757V20.559H10.1177V35.9763H5.05762V5.13965H15.1757V10.2821H20.2338V15.4152H25.2919V20.5563H30.3519V5.13965H35.41V35.9763H25.2919V30.8372H20.2338Z" fill="#EAD000"/>
<path d="M166.168 10.2829V5.14111H145.934V10.2829H140.876V30.8387H145.934V35.9778H166.168V30.8387H171.226V10.2829H166.168ZM161.11 15.416V30.8353H150.994V10.2829H161.11V15.416Z" fill="#6E7889"/>
<path d="M483.078 10.2782V5.14111H457.785V35.9751H467.905V25.6949H478.021V35.9751H488.138V25.6949H483.079V20.5558H488.138V10.2782H483.078ZM478.019 15.4173V20.5564H467.905V10.2782H478.021L478.019 15.4173Z" fill="#6E7889"/>
<path d="M100.662 10.2788H95.6035V5.13965H125.954V10.2788H115.838V35.9763H105.72V10.2788H100.662Z" fill="#4A5162"/>
<path d="M367.241 30.8372V25.6981H372.299V20.559H377.357V15.4179H382.417V10.2788H367.241V5.13965H397.592V15.4179H392.534V20.559H387.475V25.6981H382.417V30.8372H397.592V35.9763H367.241V30.8372Z" fill="#6E7889"/>
</svg>
