<svg width="168" height="134" viewBox="0 0 168 134" fill="none" xmlns="http://www.w3.org/2000/svg">
<g clip-path="url(#clip0_168_2909)">
<path d="M147.84 113.9V107.2V100.5V93.8V87.1001H141.119H134.4H127.68H120.96H114.24H107.52V80.4001H100.8V73.7001V66.9989V60.2984V53.5984H107.52V46.8984H114.24H120.96H127.68H134.4H141.119H147.84V40.1985V33.4991V26.7991V20.0992V13.3992V6.69922H141.119H134.4H127.68H120.96H114.24H107.52H100.8H94.08H87.3601H80.6401H73.9202H67.2003H60.4804H53.7604H47.0393H40.3194H33.5994H26.8795H20.1596H13.4397H6.71973V13.3992V20.0992V26.7991V33.4991V40.1985V46.8984V53.5984V60.2984V66.9989V73.7001V80.4001V87.1001V93.8V100.5V107.2V113.9V120.6V127.3H13.439H20.159H26.8789H33.5988H40.3187H47.0387H53.7604H60.4804H67.2003H73.9202H80.6401H87.3601H94.08H100.8H107.52H114.24H120.96H127.68H134.4H141.119H147.84V120.6V113.9Z" fill="#A67B5B"/>
<path d="M161.281 66.9991V53.5991H107.521V80.4002H161.281V66.9991ZM127.681 66.9991V73.7003H114.241V60.2991H127.681V66.9991Z" fill="#A67B5B"/>
<path d="M13.4397 113.9H6.71973V120.6H13.4397V113.9Z" fill="#7F5539"/>
<path d="M127.68 60.2983H114.24V73.6995H127.68V60.2983Z" fill="#FBB040"/>
<path d="M40.3194 60.3002H47.0393V53.6002H40.3194V60.3002ZM47.0393 40.2003H40.3194V46.9003H47.0393V40.2003ZM53.7592 53.6002V46.9003H47.0393V53.6002H53.7592ZM33.5994 26.8003H40.3194V33.4991H33.6V40.1985H40.32V33.4991H47.0393V26.7991H40.3194V20.1004H33.5994V26.7991H26.8795V33.4991H33.5994V26.8003ZM53.7592 73.7001H47.0393V80.4001H53.7592V73.7001ZM53.7592 100.5H47.0393V93.8H40.3194V87.1001H47.0393V80.4001H13.4397V80.3989H40.3194V73.6989H47.0393V67.0002H53.7592V60.3002H47.0393V66.9989H40.3194V60.3002H33.5994V53.6002H40.3194V46.9003H33.5994V53.599H26.8795V46.899H33.5994V40.1991H26.8795V33.4997H20.1596V26.801H26.4314V20.101H19.7115V26.7997H13.4397V20.0998H20.1596V13.3998H13.4403V6.69983H6.72034V13.3998H13.4397L6.71973 13.4004V113.901H13.4397V120.601H6.71973V127.301H60.4798V120.601H53.7598V113.901H60.4798V107.201H53.7598V100.501L53.7592 100.5ZM47.0393 93.8H53.7592V87.1001H47.0393V93.8ZM53.7604 93.8V100.5H60.4804V93.8H53.7604ZM60.4804 100.5V107.2H67.2003V100.5H60.4804ZM60.4804 127.3H67.2003V113.9H60.4804V127.3ZM67.2003 113.9H73.9202V107.2H67.2003V113.9ZM53.7604 53.5996V60.2996H60.4804V53.5996H53.7604ZM67.2003 60.2996H60.4804V66.9996H67.2003V60.2996ZM60.4791 87.0995V80.3995H53.7592V87.0995H60.4791ZM60.4804 80.3977H67.2003V73.6977H60.4804V66.9989H53.7604V73.6989H60.4804V80.3977ZM67.2003 87.0995H60.4804V93.7994H67.2003V87.0995ZM73.9202 80.3995H67.2003V87.0995H73.9202V80.3995ZM73.9202 100.499V93.7994H67.2003V100.499H73.9202ZM73.9202 100.499V107.199H80.6401V100.499H73.9202ZM80.6401 113.899H87.3601V107.199H80.6401V113.899ZM73.9202 127.299H80.6401V120.599H73.9202V127.299ZM26.8795 20.0992H40.3194V13.3992H26.8801V6.69922H20.1602V13.3992H26.8795V20.0992ZM114.24 73.7001V53.6002H107.52V80.3989H114.24V80.4001H161.28V73.7001H114.24Z" fill="#996E4E"/>
<path d="M141.12 46.8986V33.4986H134.4V46.8986H107.519V53.5985H161.279V46.8986H154.56V6.69936H147.84V46.8986H141.12ZM161.279 53.5985V80.3996H167.999V53.5985H161.279ZM100.8 80.3996H107.519V53.5985H100.8V80.3996ZM107.519 87.0996H134.4V100.5H141.12V87.0996H147.84V127.299H154.56V87.0996H161.279V80.3996H107.519V87.0996ZM147.84 0H6.71993V6.69936H147.84V0ZM26.8791 120.6H40.319V113.9H26.8791V120.6ZM47.0389 120.6H60.4787V113.9H47.0389V120.6ZM67.1999 120.6H80.6397V113.9H67.1999V120.6ZM87.3597 120.6H100.8V113.9H87.3597V120.6ZM107.519 120.6H120.959V113.9H107.519V120.6ZM134.4 113.9H127.68V120.6H141.12V107.2H134.4V113.9ZM26.8791 20.0993H40.319V13.3993H26.8791V20.0993ZM47.0389 20.0993H60.4787V13.3993H47.0389V20.0993ZM67.1999 20.0993H80.6397V13.3993H67.1999V20.0993ZM100.8 13.3993H87.3597V20.0993H100.8V13.3993ZM120.959 13.3993H107.519V20.0993H120.959V13.3993ZM134.399 26.7993H141.119V13.3993H127.679V20.0993H134.399V26.7993ZM6.71993 120.6H20.1592V113.9H6.71993V20.0993H20.1598V13.3993H6.71993V6.69936H0V127.3H6.71932V134H147.84V127.3H6.71993V120.6Z" fill="black"/>
</g>
<defs>
<clipPath id="clip0_168_2909">
<rect width="168" height="134" fill="white"/>
</clipPath>
</defs>
</svg>
